<svg width="960" height="350" viewBox="0 0 960 350" fill="none" xmlns="http://www.w3.org/2000/svg">
<g clip-path="url(#clip0_43_246)">
<path d="M1001.13 128.014C1001.71 122.318 996.716 117.206 991.121 115.906C985.526 114.606 979.72 116.26 974.443 118.453C977.979 115.526 980.771 111.581 981.576 107.088C982.38 102.595 980.913 97.5538 977.28 94.7944C975.691 93.6093 973.778 92.9386 971.797 92.8722C969.816 92.8059 967.862 93.3469 966.197 94.4229C968.531 91.4158 967.178 85.9322 963.546 84.1191C959.33 82.023 954.001 83.9953 950.845 87.4889L952.065 85.8349C944.871 81.4127 934.389 83.3231 929.307 90.0626C924.225 96.8021 925.1 107.389 931.313 113.147C928.799 111.894 926.025 111.254 923.217 111.281C920.409 111.307 917.647 111.998 915.157 113.297C910.261 116.021 907.043 121.735 907.768 127.289C908.493 132.843 913.478 137.69 919.081 137.761C911.206 136.823 903.508 144.482 904.401 152.363C905.294 160.243 914.485 166.001 921.962 163.33C919.311 170.485 923.562 179.383 930.8 181.85C931.215 181.99 931.637 182.108 932.064 182.204C933.143 186.104 934.053 190.031 934.839 193.994C928.625 189.311 921.786 185.524 914.521 182.744C914.043 183.734 913.557 184.734 913.071 185.724L924.057 191.862L917.305 193.799C917.605 194.843 917.906 195.886 918.188 196.93L924.835 194.533C925.865 193.964 927.06 193.769 928.218 193.98C929.376 194.191 930.426 194.796 931.189 195.692L935.75 199.398C939.038 218.74 939.506 238.658 939.913 258.346C941.565 258.231 948.972 258.417 950.624 258.293C950.359 250.253 959.109 197.558 965.835 179.71C967.826 178.78 969.521 177.317 970.731 175.482C972.95 171.944 972.605 166.762 969.317 164.25C978.155 169.212 991.015 163.091 992.756 153.115C993.825 146.924 989.009 139.264 982.875 140.609C986.79 139.892 990.829 139.149 994.267 137.221C997.705 135.293 1000.71 131.976 1001.13 128.014ZM947.637 215.893C947.637 215.893 946.17 190.093 945.622 178.622C948.733 176.853 947.955 176.057 949.051 172.652C948.344 175.305 949.882 178.295 952.215 179.816C954.186 181.098 958.968 181.426 958.968 181.426L947.637 215.893Z" fill="#E8F0F7"/>
<path d="M594.04 145.544V93.3793L571.096 106.787V259.911H593.359L594.04 145.544Z" fill="#DEE1ED"/>
<path d="M664.303 115.658L675.263 124.45V259.911H664.303V115.658Z" fill="#DEE1ED"/>
<path d="M410.657 55.1979L423.207 94.538V259.911H409.844L410.657 55.1979Z" fill="#DEE1ED"/>
<path d="M467.76 120.311V53.3228L499.357 70.5429V259.911H468.697L467.76 120.311Z" fill="#DEE1ED"/>
<path d="M825.414 104.028V81.2003H800.075V104.028H769.937L770.874 259.902H860.758V104.028H825.414ZM799.545 140.334H794.87V120.195H799.545V140.334ZM809.612 179.099H804.927V158.961H809.612V179.099ZM819.21 145.597H814.526V125.467H819.21V145.597ZM835.357 169.477H830.682V149.356H835.357V169.477Z" fill="#E8F0F7"/>
<path d="M658.868 115.658V102.259H655.562V115.667H643.048L608.923 91.5129L589.099 115.658V259.911H664.224V115.658H658.868ZM656.384 165.364H596.921V161.826H656.384V165.364ZM656.384 153.636H596.921V150.019H656.384V153.636ZM656.384 142.625H596.921V139.087H656.384V142.625ZM656.384 132.418H596.921V128.881H656.384V132.418Z" fill="#E8F0F7"/>
<path d="M542.434 108.123L506.975 80.4044L504.165 259.947H578.67V68.5529L542.434 108.123ZM522.362 178.693H518.5V163.356H522.362V178.693ZM531.908 179.577H528.045V164.232H531.908V179.577ZM531.908 132.702H528.045V117.383H531.908V132.702ZM548.17 164.206H544.307V148.887H548.17V164.206ZM564.441 137.504H560.579V122.186H564.441V137.504Z" fill="#E8F0F7"/>
<path d="M867.431 152.133V95.3691L896.217 109.954V259.911H868.279L867.431 152.133Z" fill="#E8F0F7"/>
<path d="M121.702 191.004V165.001L145.353 171.688V259.911H122.4L121.702 191.004Z" fill="#E8F0F7"/>
<path d="M415.315 122.769L413.458 259.911H486.02V122.769H415.315ZM428.669 140.37H434.37V152.575H428.669V140.37ZM439.416 187.307H434.317V176.393H439.416V187.307ZM441.184 146.074H446.275V156.98H441.184V146.074ZM450.658 178.896H445.559V167.982H450.658V178.896Z" fill="#E8F0F7"/>
<path d="M42.4498 123.486L40.5938 260.628H113.155V123.486H42.4498ZM55.8042 141.068H61.5049V153.283H55.8042V141.068ZM66.5515 188.05H61.4518V177.092H66.5515V188.05ZM68.3191 146.817H73.4099V157.731H68.3368L68.3191 146.817ZM77.8113 179.595H72.7117V168.69H77.8113V179.595Z" fill="#E8F0F7"/>
<path d="M393.299 55.1977V35.0412H368.269V53.3227H353.067V27.4438H347.764V53.3227H331.202V259.911H411.488L410.657 55.1977H393.299ZM404.134 99.703H341.056V96.7755H404.134V99.703ZM404.134 88.2052H341.056V85.2777H404.134V88.2052ZM404.134 78.1314H341.056V75.2039H404.134V78.1314Z" fill="#E8F0F7"/>
<path d="M297.077 85.7022C297.378 85.7022 297.378 142.696 297.378 142.696H293.197V87.6037L286.339 90.9292V145.889H282.114V92.9812L275.256 96.3067V148.984H271.04V98.3586L264.182 101.684V151.408H259.966V103.727L249.89 108.627V259.911H326.429V71.5245L297.077 85.7022Z" fill="#E8F0F7"/>
<path d="M231.71 75.2215V64.8027H209.703V46.5389H197.33V64.8116H181.032V75.2303H151.424V259.911H244.11V75.2215H231.71ZM176.233 108.751H169.56V91.1857H176.233V108.751ZM181.969 91.1857H188.642V108.751H181.969V91.1857ZM194.846 145.376H188.173V127.811H194.846V145.376ZM207.22 145.376H200.573V127.811H207.246L207.22 145.376ZM220.68 145.376H214.007V127.811H220.724L220.68 145.376ZM233.054 145.376H226.381V127.811H233.098L233.054 145.376Z" fill="#E8F0F7"/>
<path d="M692.541 78.149V67.7656H711.155V49.4576H721.645V67.7656H735.406V78.1844H760.463V259.911H682.077V78.149H692.541ZM739.472 111.678H745.111V94.1132H739.472V111.678ZM734.62 94.1132H728.972V111.678H734.62V94.1132ZM723.731 148.303H729.37V130.738H723.731V148.303ZM713.231 148.303H718.879V130.738H713.231V148.303ZM701.848 148.303H707.495V130.738H701.848V148.303ZM691.357 148.303H696.996V130.738H691.357V148.303Z" fill="#E8F0F7"/>
<path d="M297.944 269.735H341.913L252.215 350H180.537L297.944 269.735Z" fill="white"/>
<path d="M681.98 269.735H638.01L724.191 350H795.877L681.98 269.735Z" fill="white"/>
<path d="M472.179 269.735H516.149L526.56 350H453.937L472.179 269.735Z" fill="white"/>
<path d="M528.92 269.735L541.32 350H612.061L571.016 269.735H528.92Z" fill="white"/>
<path d="M583.549 269.735L631.381 350H699.205L620.855 269.735H583.549Z" fill="white"/>
<path d="M795.934 267H752L902.372 349.988H974L795.934 267Z" fill="white"/>
<path d="M698 267L810.165 349.988H878L735.312 267H698Z" fill="white"/>
<path d="M178.213 269.349H222.183L71.6776 349.614H0L178.213 269.349Z" fill="white"/>
<path d="M276.644 269.349L164.496 349.614H96.6719L239.338 269.349H276.644Z" fill="white"/>
<path d="M456.845 269.735L436.261 350H365.511L414.749 269.735H456.845Z" fill="white"/>
<path d="M399.874 269.735L343.858 350H276.034L362.568 269.735H399.874Z" fill="white"/>
<path d="M766.327 5.31542C771.134 1.07008 778.523 0.256398 781.767 6.73053C784.922 13.0366 782.889 13.0897 787.653 17.0255C791.356 20.068 795.899 16.3268 799.638 13.3639C803.376 10.401 809.139 8.94164 811.127 14.151C811.799 15.9199 811.817 18.0691 812.541 19.7849C814.203 23.7384 818.534 23.3935 821.459 21.2354C824.384 19.0774 826.903 15.628 830.156 14.7436C835.264 13.3373 838.375 23.6853 837.651 30.7963L745 28.7974C745 28.7974 761.527 9.56075 766.327 5.31542Z" fill="#E8F0F7"/>
<path d="M137.83 0.592171C140.923 -0.937918 145.122 0.707148 147.296 3.13053C149.47 5.5539 149.47 8.86173 149.894 11.9131C150.318 14.9644 151.662 18.4049 154.932 19.3601C157.027 19.9703 159.351 19.3601 161.26 18.3695C164.15 16.9279 166.563 14.7787 169.462 13.3812C172.361 11.9838 176.223 11.462 178.822 13.3016C183.656 16.7244 179.882 23.7735 181.323 29.1509L109 28.2134C109 28.2134 119.712 9.59581 137.83 0.592171Z" fill="#E8F0F7"/>
<path d="M861 58.6178C861.557 54.1249 865.675 45.6519 870.448 40.5398C871.071 39.8694 871.872 39.3901 872.757 39.1579C873.642 38.9257 874.575 38.95 875.447 39.2282C876.319 39.5063 877.093 40.0267 877.681 40.7287C878.268 41.4308 878.644 42.2854 878.765 43.1931C878.815 44.4652 879.236 45.6948 879.976 46.7309C882 49.0393 885.791 47.5181 888.204 45.6253C888.949 45.0224 889.841 44.6303 890.789 44.49C891.736 44.3496 892.704 44.4662 893.592 44.8275C894.479 45.1888 895.253 45.7816 895.834 46.5442C896.414 47.3068 896.779 48.2111 896.892 49.1631C896.925 49.7314 897.122 50.2779 897.457 50.7374C898.951 52.6921 902.08 51.3389 903.918 49.6938C905.756 48.0487 908.222 46.0764 910.361 47.297C912.5 48.5175 912.129 56.3006 911.563 58.6001L861 58.6178Z" fill="#E8F0F7"/>
</g>
<defs>
<clipPath id="clip0_43_246">
<rect width="1000" height="350" fill="white"/>
</clipPath>
</defs>
</svg>
