<svg width="67" height="93" viewBox="0 0 67 93" fill="none" xmlns="http://www.w3.org/2000/svg">
<path d="M13.5599 12.1976L8.37724 17.6876C8.30957 17.7591 8.26444 17.8494 8.2476 17.9469C8.23075 18.0445 8.24296 18.1449 8.28267 18.2354C8.32238 18.3259 8.38778 18.4024 8.47055 18.4551C8.55332 18.5078 8.64971 18.5344 8.74743 18.5314L14.6445 18.4601L13.5599 12.1976Z" fill="#EA5F32"/>
<path d="M39.2027 6.13763L38.0144 7.65263V6.13763H39.2027Z" fill="#010101"/>
<path d="M27.6861 11.7514C27.6861 11.7514 26.1387 8.43261 30.0997 7.56261C34.2902 6.64386 37.2443 7.49886 38.2697 9.21261C38.4169 9.41505 38.519 9.64737 38.569 9.89361C38.619 10.1398 38.6157 10.3941 38.5595 10.639C38.5032 10.8838 38.3952 11.1134 38.2429 11.3119C38.0907 11.5104 37.8977 11.6731 37.6774 11.7889L27.6861 11.7514Z" fill="#F6CA61"/>
<path d="M41.2795 20.2789L43.8264 60.0026L26.7534 54.8576L27.1199 28.5401L41.2795 20.2789Z" fill="#EA5F32"/>
<path d="M37.0187 10.9751C37.0187 10.9751 37.7109 12.6476 36.3301 12.7114C34.0239 12.8239 33.5685 10.9826 33.5685 10.9826L28.7561 35.9989L34.9641 35.7926L41.2795 20.2901L41.7867 14.4139L37.0187 10.9751Z" fill="#94A1B1"/>
<path d="M49.9468 77.5817L45.5015 79.8367L49.9536 88.8431L54.399 86.5881L49.9468 77.5817Z" fill="#D47D5D"/>
<path d="M50.6082 90.3926L55.0504 88.1314L52.5479 82.8589L48.1057 85.1239L50.6082 90.3926Z" fill="#010101"/>
<path d="M49.3198 87.7264L51.0856 93.1489L67.0036 86.3014C67.0036 86.3014 65.956 82.6526 64.2013 83.1326C62.4466 83.6126 57.7342 85.0076 57.7342 85.0076L53.1846 84.2276L52.8144 87.9776L49.3198 87.7264Z" fill="#EA5F32"/>
<path d="M57.7492 84.9776C57.7492 84.9776 55.2171 83.0164 54.188 82.7839C52.9145 82.4989 52.4592 83.8564 53.9103 84.3664C55.3615 84.8764 57.7492 84.9776 57.7492 84.9776Z" fill="#EA5F32"/>
<path d="M50.7637 91.8364L62.4467 86.7176C62.4727 86.7061 62.4931 86.6847 62.5035 86.658C62.5139 86.6313 62.5134 86.6015 62.5023 86.5751L61.4176 84.0364C62.7059 83.6614 63.6387 83.3951 64.2199 83.2376C64.314 83.2111 64.4111 83.1972 64.5087 83.1964C65.3046 83.1964 65.9339 84.1264 66.3226 84.9064C66.5368 85.3364 66.7175 85.7828 66.8631 86.2414L51.145 92.9914L50.7637 91.8364Z" fill="white"/>
<path d="M51.145 93.1451C51.1254 93.1487 51.1053 93.1487 51.0857 93.1451C51.051 93.1271 51.0245 93.0962 51.0117 93.0589L50.6415 91.8926C50.6313 91.8592 50.6336 91.8232 50.648 91.7914C50.6623 91.7596 50.6877 91.7342 50.7193 91.7201L62.369 86.6126L61.2992 84.1039C61.2901 84.0859 61.2853 84.066 61.2853 84.0458C61.2853 84.0255 61.2901 84.0056 61.2992 83.9876C61.3077 83.9693 61.3201 83.9531 61.3354 83.9402C61.3508 83.9272 61.3687 83.9178 61.388 83.9126C62.6763 83.5376 63.6091 83.2676 64.1903 83.1139C64.2964 83.0842 64.406 83.0691 64.5161 83.0689C65.3823 83.0689 66.0487 84.0401 66.4559 84.8539C66.6704 85.2907 66.8524 85.7432 67 86.2076C67.0111 86.241 67.0092 86.2774 66.9948 86.3094C66.9804 86.3415 66.9545 86.3667 66.9223 86.3801L51.2042 93.1301C51.1861 93.1403 51.1657 93.1455 51.145 93.1451ZM50.9377 91.9151L51.2301 92.8151L66.6891 86.1626C66.5544 85.7539 66.3911 85.3553 66.2004 84.9701C65.8303 84.2201 65.2343 83.3389 64.5087 83.3389C64.4237 83.3388 64.339 83.3501 64.257 83.3726C63.7091 83.5226 62.8169 83.7776 61.6064 84.1226L62.6281 86.5151C62.6418 86.5451 62.6488 86.5777 62.6488 86.6108C62.6488 86.6438 62.6418 86.6764 62.6281 86.7064C62.6165 86.7365 62.599 86.7639 62.5768 86.7871C62.5545 86.8102 62.5279 86.8287 62.4986 86.8414L50.9377 91.9151Z" fill="#010101"/>
<path d="M56.0019 85.8476H55.9723C55.9522 85.8411 55.9345 85.8287 55.9213 85.812C55.9082 85.7954 55.9001 85.7751 55.8982 85.7539L55.6021 82.9076L54.3546 85.2101C54.3399 85.234 54.317 85.2515 54.2903 85.2592C54.2636 85.2668 54.235 85.264 54.2102 85.2514C54.1978 85.2447 54.1869 85.2356 54.178 85.2246C54.1692 85.2135 54.1627 85.2007 54.1589 85.1871C54.1551 85.1734 54.1541 85.1591 54.1559 85.145C54.1577 85.1309 54.1623 85.1173 54.1695 85.1051L55.5799 82.5026C55.5907 82.4823 55.6077 82.4662 55.6285 82.4567C55.6492 82.4472 55.6725 82.4449 55.6946 82.4501C55.717 82.4541 55.7375 82.4655 55.7528 82.4824C55.7682 82.4994 55.7777 82.5209 55.7798 82.5439L56.0833 85.4914L57.5641 83.8414C57.5749 83.8268 57.5894 83.8154 57.6061 83.8084C57.6227 83.8015 57.641 83.7992 57.6588 83.8019C57.6766 83.8046 57.6934 83.8121 57.7074 83.8237C57.7213 83.8353 57.7319 83.8504 57.7381 83.8676L58.4155 85.4539L59.6852 83.6014C59.6966 83.5858 59.7119 83.5734 59.7294 83.5655C59.7469 83.5577 59.7661 83.5545 59.7852 83.5564C59.8036 83.5586 59.8211 83.5657 59.8361 83.5769C59.851 83.588 59.8628 83.6029 59.8703 83.6201L60.4959 85.0864C60.502 85.0993 60.5054 85.1135 60.5058 85.1278C60.5063 85.1422 60.5039 85.1565 60.4987 85.1698C60.4934 85.1832 60.4856 85.1953 60.4756 85.2055C60.4656 85.2156 60.4536 85.2236 60.4404 85.2289C60.4279 85.235 60.4142 85.2383 60.4003 85.2388C60.3864 85.2392 60.3726 85.2367 60.3597 85.2314C60.3468 85.2261 60.3351 85.2181 60.3254 85.208C60.3158 85.1979 60.3083 85.1858 60.3034 85.1726L59.7519 83.8826L58.4895 85.7314C58.4785 85.7469 58.4637 85.7592 58.4465 85.7671C58.4293 85.7749 58.4104 85.7781 58.3916 85.7762C58.3729 85.7743 58.3549 85.7674 58.3396 85.7562C58.3243 85.7451 58.3122 85.73 58.3044 85.7126L57.6196 84.1039L56.1018 85.8139C56.0891 85.8272 56.0733 85.8372 56.0559 85.8431C56.0385 85.8489 56.02 85.8505 56.0019 85.8476Z" fill="#010101"/>
<path d="M15.3393 68.7165L13.0452 64.2484L3.23858 69.4154L5.53267 73.8834L15.3393 68.7165Z" fill="#D47D5D"/>
<path d="M3.19092 69.3702L5.5342 73.8177L11.4831 70.7501L9.13981 66.3064L3.19092 69.3702Z" fill="#010101"/>
<path d="M5.32698 68.2489L0 70.1239L7.00763 86.1326C7.00763 86.1326 10.5947 85.0076 10.0913 83.2489C9.58782 81.4901 8.1441 76.7126 8.1441 76.7126L8.84375 72.0926L5.14189 71.7776L5.32698 68.2489Z" fill="#EA5F32"/>
<path d="M8.16992 76.7314C8.16992 76.7314 10.069 74.1364 10.28 73.0901C10.5391 71.7964 9.19534 71.3576 8.7141 72.8351C8.23285 74.3126 8.16992 76.7314 8.16992 76.7314Z" fill="#EA5F32"/>
<path d="M0.144287 70.1726L1.29186 69.7676L6.5263 81.5239C6.53801 81.5497 6.55928 81.5699 6.58553 81.5801H6.62254C6.63713 81.5838 6.65238 81.5838 6.66697 81.5801L9.15832 80.4551C9.54701 81.7564 9.82465 82.7051 9.98754 83.2826C10.2541 84.2126 9.24716 84.9701 8.37353 85.4389C7.95172 85.6614 7.5136 85.8508 7.06307 86.0051L0.144287 70.1726Z" fill="white"/>
<path d="M7.0631 86.1251C7.03648 86.1253 7.01039 86.1175 6.98804 86.1029C6.96569 86.0882 6.94803 86.0673 6.93724 86.0426L0.0184592 70.2289C0.00938397 70.2116 0.00463867 70.1923 0.00463867 70.1726C0.00463867 70.153 0.00938397 70.1337 0.0184592 70.1164C0.0259491 70.0983 0.0370489 70.082 0.0510632 70.0684C0.0650774 70.0548 0.0817038 70.0444 0.0999002 70.0376L1.24378 69.6364C1.27679 69.6248 1.3129 69.626 1.34506 69.6399C1.37723 69.6537 1.40314 69.6792 1.41776 69.7114L6.64109 81.4376L9.09913 80.3126C9.13598 80.2978 9.17703 80.2978 9.21388 80.3126C9.24953 80.3305 9.27726 80.3613 9.29162 80.3989C9.66181 81.7001 9.95796 82.6489 10.1208 83.2264C10.3504 84.0364 9.76916 84.8389 8.43649 85.5514C8.00832 85.7751 7.56407 85.9656 7.10753 86.1214C7.09324 86.1263 7.07799 86.1276 7.0631 86.1251ZM0.333118 70.2551L7.14084 85.8101C7.54097 85.6669 7.93064 85.4952 8.30693 85.2964C9.14355 84.8501 10.0949 84.1414 9.85431 83.3014C9.69883 82.7501 9.436 81.8539 9.06951 80.6314L6.72253 81.7039C6.69293 81.7177 6.66072 81.7248 6.62813 81.7248C6.59554 81.7248 6.56334 81.7177 6.53374 81.7039C6.50417 81.6929 6.47712 81.6759 6.45422 81.654C6.43131 81.632 6.41303 81.6057 6.40047 81.5764L1.21786 69.9514L0.333118 70.2551Z" fill="#010101"/>
<path d="M8.06261 79.5214C8.04236 79.5207 8.02268 79.5143 8.00571 79.5031C7.98874 79.4919 7.97514 79.4761 7.96637 79.4576C7.95495 79.4317 7.95398 79.4023 7.96366 79.3757C7.97334 79.3491 7.99291 79.3273 8.01819 79.3151L9.28423 78.7489L7.4333 77.4926C7.41694 77.4818 7.40381 77.4666 7.39532 77.4488C7.38684 77.4309 7.38333 77.4111 7.38517 77.3914C7.38779 77.3724 7.39488 77.3543 7.40583 77.3386C7.41678 77.323 7.43128 77.3102 7.4481 77.3014L9.0251 76.5814L7.31484 75.0814C7.30057 75.0669 7.29032 75.0489 7.28512 75.0291C7.27993 75.0094 7.27996 74.9886 7.28522 74.9689C7.29123 74.9486 7.30275 74.9305 7.31846 74.9165C7.33417 74.9026 7.35345 74.8935 7.37407 74.8901L10.1801 74.5489L7.88863 73.3226C7.86438 73.3084 7.84633 73.2854 7.83809 73.2583C7.82985 73.2312 7.83204 73.2019 7.8442 73.1764C7.85756 73.1511 7.88022 73.1322 7.90726 73.1238C7.93429 73.1154 7.96351 73.1181 7.98858 73.1314L10.5799 74.5226C10.5999 74.5328 10.6161 74.5492 10.6261 74.5695C10.6361 74.5898 10.6394 74.6128 10.6354 74.6351C10.6314 74.6578 10.6202 74.6785 10.6035 74.6941C10.5868 74.7097 10.5655 74.7193 10.5429 74.7214L7.6369 75.0776L9.29163 76.5364C9.30399 76.5491 9.3134 76.5644 9.31916 76.5813C9.32493 76.5982 9.3269 76.6161 9.32495 76.6339C9.32246 76.652 9.31534 76.6691 9.30431 76.6836C9.29327 76.6981 9.27869 76.7094 9.26202 76.7164L7.71094 77.4289L9.56187 78.6851C9.57613 78.6908 9.58908 78.6994 9.59991 78.7103C9.61074 78.7213 9.61922 78.7344 9.6248 78.7489C9.62392 78.7679 9.61794 78.7863 9.6075 78.8022C9.59707 78.818 9.58257 78.8307 9.56557 78.8389L8.10704 79.4989C8.09433 79.51 8.07905 79.5178 8.06261 79.5214Z" fill="#010101"/>
<path d="M35.0862 35.4776L53.3178 81.3251L45.444 84.4564L22.5146 36.0514L35.0862 35.4776Z" fill="#010101"/>
<path d="M29.6888 32.2151H12.6121C12.4268 32.2151 12.2434 32.1764 12.0735 32.1013C11.9035 32.0263 11.7507 31.9165 11.6246 31.7789C11.4985 31.6412 11.4017 31.4787 11.3405 31.3015C11.2792 31.1243 11.2546 30.9362 11.2684 30.7489L12.5862 13.3714C12.6114 13.0288 12.7636 12.7086 13.0121 12.4749C13.2606 12.2412 13.5872 12.1114 13.9263 12.1114H31.214L29.6888 32.2151Z" fill="#EA5F32"/>
<path d="M33.0799 41.4401L31.6806 43.4501L33.5315 58.8251C33.6596 59.8964 33.4643 60.9819 32.9713 61.9385C32.4784 62.8951 31.7108 63.6779 30.7699 64.1839L13.7414 73.3489L9.38428 65.5189L23.7327 56.8714L19.6866 41.5864L22.7036 33.9101L33.0799 41.4401Z" fill="#010101"/>
<path d="M33.9349 10.9564L30.9438 11.0689C29.1625 11.1379 27.42 11.6164 25.8481 12.4681C24.2762 13.3198 22.9161 14.5225 21.8706 15.9851C19.4681 19.3601 16.2289 23.9614 14.0967 27.0326C13.4442 27.9556 13.1255 29.0781 13.1943 30.2112C13.263 31.3443 13.7151 32.4188 14.4742 33.2539C14.9532 33.7792 15.5953 34.1226 16.2937 34.227C16.9921 34.3314 17.7047 34.1904 18.3131 33.8276L11.2795 53.6276L19.7938 57.6889L34.7197 32.4551L33.9349 10.9564Z" fill="#F6CA61"/>
<path d="M32.1174 20.6726L28.3378 23.6651L28.5525 23.9914L22.7109 29.6051L33.2723 20.9276L32.1174 20.6726Z" fill="#EA5F32"/>
<path d="M36.5337 10.6789L39.4397 10.9151C40.2045 10.9772 40.9468 11.2069 41.6154 11.5883C42.284 11.9697 42.8628 12.4936 43.3118 13.1239L53.677 27.7039C54.1135 28.3166 54.324 29.0649 54.2719 29.8187C54.2198 30.5724 53.9084 31.2837 53.392 31.8289C52.8229 32.4306 52.0459 32.7858 51.224 32.82C50.4021 32.8543 49.599 32.5649 48.9831 32.0126L42.0235 25.7839L42.2272 35.1889L40.6317 17.1214C40.6317 17.1214 40.2356 12.9664 36.5337 10.6789Z" fill="#F6CA61"/>
<path d="M19.79 57.6926L20.4231 45.3139L34.7196 32.4551L19.79 57.6926Z" fill="#EA5F32"/>
<mask id="mask0_1238_345" style="mask-type:luminance" maskUnits="userSpaceOnUse" x="19" y="32" width="16" height="26">
<path d="M19.79 57.6889L20.4231 45.3139L34.7196 32.4551L19.79 57.6889Z" fill="white"/>
</mask>
<g mask="url(#mask0_1238_345)">
<g style="mix-blend-mode:overlay" opacity="0.56">
<path fill-rule="evenodd" clip-rule="evenodd" d="M34.4281 32.9988C34.4281 33.0288 34.3531 33.1226 34.3494 33.0926C34.3456 33.0626 34.3868 33.0588 34.4281 32.9988Z" fill="#010101"/>
<path fill-rule="evenodd" clip-rule="evenodd" d="M34.7973 33.6851C34.7973 33.7376 34.7159 33.7788 34.6863 33.8501C34.6752 33.8163 34.764 33.7038 34.7973 33.6851Z" fill="#010101"/>
<path fill-rule="evenodd" clip-rule="evenodd" d="M34.7176 34.5814C34.7443 34.5814 34.6528 34.6974 34.6566 34.6665C34.6787 34.6394 34.6991 34.611 34.7176 34.5814Z" fill="#010101"/>
<path fill-rule="evenodd" clip-rule="evenodd" d="M34.6982 35.0351C34.6838 35.0789 34.6594 35.1187 34.627 35.1513C34.6474 35.1107 34.6712 35.0718 34.6982 35.0351Z" fill="#010101"/>
<path fill-rule="evenodd" clip-rule="evenodd" d="M33.609 35.7626C33.472 35.9951 33.3091 36.2051 33.1462 36.4526C33.285 36.2123 33.4396 35.9818 33.609 35.7626Z" fill="#010101"/>
<path fill-rule="evenodd" clip-rule="evenodd" d="M34.3621 36.2163C34.3812 36.2163 34.3202 36.3208 34.3049 36.3015L34.3621 36.2163Z" fill="#010101"/>
<path fill-rule="evenodd" clip-rule="evenodd" d="M34.4762 36.4451C34.4547 36.4857 34.4282 36.5235 34.3975 36.5576C34.4012 36.5276 34.4499 36.4901 34.4762 36.4451Z" fill="#010101"/>
<path fill-rule="evenodd" clip-rule="evenodd" d="M34.1578 36.5313C34.1407 36.5742 34.118 36.6145 34.0903 36.6513C34.0566 36.6551 34.1353 36.5688 34.1578 36.5313Z" fill="#010101"/>
<path fill-rule="evenodd" clip-rule="evenodd" d="M34.0577 36.7788C34.1176 36.7076 34.0015 36.8988 34.0015 36.8613C34.0015 36.8238 34.0577 36.7976 34.0577 36.7788Z" fill="#010101"/>
<path fill-rule="evenodd" clip-rule="evenodd" d="M33.9903 36.8914C34.0088 36.8914 33.9125 37.0451 33.9051 37.0226C33.8977 37.0001 33.9421 36.9626 33.9903 36.8914Z" fill="#010101"/>
<path fill-rule="evenodd" clip-rule="evenodd" d="M33.1205 36.4601C33.1427 36.4601 33.0502 36.5801 33.0687 36.5914C33.0872 36.6026 33.0094 36.6626 32.9946 36.6626C33.0205 36.5989 33.0983 36.5089 33.1205 36.4601Z" fill="#010101"/>
<path fill-rule="evenodd" clip-rule="evenodd" d="M33.1536 36.8276C33.2091 36.7751 33.1129 36.9101 33.087 36.9476C33.1092 36.8876 33.1573 36.8426 33.1536 36.8276Z" fill="#010101"/>
<path fill-rule="evenodd" clip-rule="evenodd" d="M32.9471 37.1238C32.9413 37.1698 32.9217 37.213 32.8909 37.2476C32.9021 37.1913 32.9059 37.1651 32.9471 37.1238Z" fill="#010101"/>
<path fill-rule="evenodd" clip-rule="evenodd" d="M33.3172 37.4688C33.3018 37.5043 33.2829 37.5382 33.261 37.5701C33.261 37.5701 33.2722 37.4988 33.3172 37.4688Z" fill="#010101"/>
<path fill-rule="evenodd" clip-rule="evenodd" d="M33.5173 37.6451C33.5173 37.6451 33.4986 37.6789 33.5173 37.6826C33.5361 37.6864 33.4798 37.7201 33.4499 37.7576C33.4424 37.7239 33.5023 37.6601 33.5173 37.6451Z" fill="#010101"/>
<path fill-rule="evenodd" clip-rule="evenodd" d="M33.8246 37.9451C33.8508 37.9451 33.7796 38.0276 33.7571 38.0651C33.7346 38.1026 33.7946 37.9901 33.8246 37.9451Z" fill="#010101"/>
<path fill-rule="evenodd" clip-rule="evenodd" d="M31.3144 37.2664C31.3078 37.3061 31.2938 37.3443 31.2732 37.3789C31.2732 37.3789 31.3032 37.3076 31.2732 37.3564C31.2822 37.3244 31.2961 37.294 31.3144 37.2664Z" fill="#010101"/>
<path fill-rule="evenodd" clip-rule="evenodd" d="M32.9463 38.3389C32.9186 38.4005 32.8782 38.4555 32.8279 38.5001C32.8706 38.4489 32.9101 38.395 32.9463 38.3389Z" fill="#010101"/>
<path fill-rule="evenodd" clip-rule="evenodd" d="M31.025 37.4988C31.025 37.4988 31.025 37.4988 31.025 37.5213C30.9669 37.5859 30.9171 37.6577 30.877 37.7351C30.9127 37.6484 30.9628 37.5685 31.025 37.4988Z" fill="#010101"/>
<path fill-rule="evenodd" clip-rule="evenodd" d="M31.1251 37.7051C31.0913 37.7766 31.0503 37.8445 31.0029 37.9076C31.0358 37.8355 31.0768 37.7676 31.1251 37.7051Z" fill="#010101"/>
<path fill-rule="evenodd" clip-rule="evenodd" d="M30.8512 37.7726C30.8845 37.7726 30.7734 37.8776 30.8104 37.8626C30.8475 37.8476 30.7734 37.9189 30.7734 37.9114C30.7142 37.9789 30.6253 38.1401 30.7734 37.9114C30.7734 37.9114 30.7734 37.9114 30.7734 37.8889C30.7734 37.8664 30.8215 37.8251 30.8512 37.7726Z" fill="#010101"/>
<path fill-rule="evenodd" clip-rule="evenodd" d="M32.7842 38.9988C32.7777 39.0391 32.7579 39.0761 32.728 39.1038C32.7441 39.0675 32.7628 39.0323 32.7842 38.9988Z" fill="#010101"/>
<path fill-rule="evenodd" clip-rule="evenodd" d="M32.5429 38.9726C32.4946 39.0196 32.4579 39.0774 32.4355 39.1413C32.4355 39.1413 32.4355 39.1151 32.4355 39.1113C32.4655 39.0694 32.4927 39.0256 32.517 38.9801C32.517 38.9801 32.5355 38.9651 32.5429 38.9726Z" fill="#010101"/>
<path fill-rule="evenodd" clip-rule="evenodd" d="M32.5762 39.0363C32.5202 39.1683 32.4507 39.294 32.3689 39.4113C32.3689 39.4113 32.4134 39.3401 32.4282 39.3101C32.443 39.2801 32.3763 39.3738 32.343 39.4188C32.4098 39.2848 32.4878 39.1569 32.5762 39.0363Z" fill="#010101"/>
<path fill-rule="evenodd" clip-rule="evenodd" d="M30.6224 38.1176C30.6224 38.1176 30.5849 38.1926 30.5549 38.2414C30.5702 38.1966 30.593 38.1547 30.6224 38.1176Z" fill="#010101"/>
<path fill-rule="evenodd" clip-rule="evenodd" d="M30.5192 38.2488C30.5192 38.2488 30.5192 38.2953 30.4772 38.3417C30.4734 38.3417 30.4772 38.3224 30.5192 38.2488Z" fill="#010101"/>
<path fill-rule="evenodd" clip-rule="evenodd" d="M30.4512 38.3876C30.4734 38.3876 30.2846 38.5939 30.3439 38.5751C30.3217 38.5751 30.2958 38.6089 30.3069 38.5751C30.3772 38.4814 30.3809 38.4851 30.4512 38.3876Z" fill="#010101"/>
<path fill-rule="evenodd" clip-rule="evenodd" d="M32.1802 39.6551C32.1348 39.7041 32.0951 39.7582 32.0618 39.8163C32.0618 39.8163 32.1284 39.7263 32.0914 39.7413C32.1265 39.719 32.1567 39.6897 32.1802 39.6551Z" fill="#010101"/>
<path fill-rule="evenodd" clip-rule="evenodd" d="M31.4323 39.2276C31.3915 39.2839 31.3471 39.3551 31.3323 39.3514C31.3175 39.3476 31.4174 39.2164 31.4323 39.2276Z" fill="#010101"/>
<path fill-rule="evenodd" clip-rule="evenodd" d="M32.0541 39.8088C32.0541 39.8388 32.0541 39.8501 32.0541 39.8388C32.0245 39.8688 31.9986 39.9176 32.0097 39.9288C32.0208 39.9401 31.9838 39.9288 31.9468 39.9813C31.9912 39.9251 32.006 39.8801 32.0541 39.8088Z" fill="#010101"/>
<path fill-rule="evenodd" clip-rule="evenodd" d="M32.1144 39.9138C32.1144 39.9138 32.0545 40.0338 32.0432 40.0113C32.0708 39.9818 32.0947 39.9491 32.1144 39.9138Z" fill="#010101"/>
<path fill-rule="evenodd" clip-rule="evenodd" d="M31.9405 39.9926C31.9229 40.0433 31.8962 40.0903 31.8618 40.1314C31.8813 40.0816 31.9078 40.0349 31.9405 39.9926Z" fill="#010101"/>
<path fill-rule="evenodd" clip-rule="evenodd" d="M31.8996 40.0151C31.8996 40.0451 31.8734 40.0789 31.8396 40.1164C31.8059 40.1539 31.8846 40.0489 31.8996 40.0151Z" fill="#010101"/>
<path fill-rule="evenodd" clip-rule="evenodd" d="M31.8913 40.2626C31.8599 40.3216 31.824 40.378 31.7839 40.4314C31.8155 40.3725 31.8514 40.3161 31.8913 40.2626Z" fill="#010101"/>
<path fill-rule="evenodd" clip-rule="evenodd" d="M29.9857 39.1638C29.9857 39.1638 29.9857 39.2088 29.9369 39.2501C29.8882 39.2913 29.9369 39.2238 29.9369 39.2201C29.9369 39.2163 29.9519 39.2013 29.9857 39.1638Z" fill="#010101"/>
<path fill-rule="evenodd" clip-rule="evenodd" d="M31.6766 40.2964C31.7062 40.2964 31.5729 40.4989 31.5581 40.5026C31.5433 40.5064 31.6655 40.3264 31.6766 40.2964Z" fill="#010101"/>
<path fill-rule="evenodd" clip-rule="evenodd" d="M31.915 40.694L31.8807 40.7443C31.8807 40.7443 31.8464 40.7443 31.8807 40.6978C31.8845 40.7172 31.9074 40.6785 31.915 40.694Z" fill="#010101"/>
<path fill-rule="evenodd" clip-rule="evenodd" d="M29.8711 39.4901C29.8711 39.5133 29.8711 39.5172 29.8444 39.5675C29.8367 39.5559 29.8291 39.5443 29.8711 39.4901Z" fill="#010101"/>
<path fill-rule="evenodd" clip-rule="evenodd" d="M29.7265 39.7039C29.7265 39.7039 29.7003 39.7676 29.6741 39.8089C29.6478 39.8501 29.704 39.7489 29.7265 39.7039Z" fill="#010101"/>
<path fill-rule="evenodd" clip-rule="evenodd" d="M31.3824 40.8738C31.3824 40.8738 31.3253 40.9474 31.3176 40.9319L31.3824 40.8738Z" fill="#010101"/>
<path fill-rule="evenodd" clip-rule="evenodd" d="M31.185 41.0899C31.185 41.0899 31.185 41.0899 31.185 41.0473C31.185 41.0047 31.185 41.0473 31.1621 41.0473C31.2002 40.9931 31.2422 41.0125 31.185 41.0899Z" fill="#010101"/>
<path fill-rule="evenodd" clip-rule="evenodd" d="M31.4176 41.2001C31.3657 41.3014 31.3287 41.3164 31.2806 41.4176C31.2547 41.4101 31.3916 41.2189 31.4176 41.2001Z" fill="#010101"/>
<path fill-rule="evenodd" clip-rule="evenodd" d="M31.0964 41.1813C31.0964 41.2001 31.0701 41.2526 31.0514 41.2938C31.0514 41.2938 31.0514 41.2451 31.0289 41.2938C31.0064 41.3426 31.0626 41.2226 31.0289 41.2676C31.0626 41.2113 31.0964 41.2488 31.0964 41.1813Z" fill="#010101"/>
<path fill-rule="evenodd" clip-rule="evenodd" d="M31.162 41.2114C31.162 41.2601 31.051 41.3876 31.0103 41.4439C31.0621 41.3389 31.1139 41.3126 31.162 41.2114Z" fill="#010101"/>
<path fill-rule="evenodd" clip-rule="evenodd" d="M29.3483 40.2139C29.3483 40.2626 29.2668 40.3151 29.2224 40.3901C29.2576 40.3267 29.2998 40.2676 29.3483 40.2139Z" fill="#010101"/>
<path fill-rule="evenodd" clip-rule="evenodd" d="M30.9586 41.8713C30.9586 41.8713 30.9771 41.8713 30.9845 41.8713C30.9919 41.8713 30.9253 41.9913 30.9475 41.9651C30.9031 42.0513 30.8439 42.1151 30.7883 42.2163C30.7883 42.2163 30.7883 42.1901 30.7883 42.1863C30.8591 42.0897 30.9164 41.9837 30.9586 41.8713Z" fill="#010101"/>
<path fill-rule="evenodd" clip-rule="evenodd" d="M30.6883 41.8939C30.6698 41.9389 30.5847 42.0776 30.6032 42.0026C30.6328 41.9989 30.6476 41.9276 30.6883 41.8939Z" fill="#010101"/>
<path fill-rule="evenodd" clip-rule="evenodd" d="M30.8381 42.1901C30.8686 42.1901 30.7771 42.31 30.7809 42.2752L30.8381 42.1901Z" fill="#010101"/>
<path fill-rule="evenodd" clip-rule="evenodd" d="M30.5771 42.0813C30.5994 42.0588 30.492 42.2126 30.4772 42.2501C30.4698 42.2163 30.529 42.1526 30.5771 42.0813Z" fill="#010101"/>
<path fill-rule="evenodd" clip-rule="evenodd" d="M30.5512 42.0888C30.4895 42.1919 30.4149 42.2865 30.3291 42.3701C30.3976 42.272 30.4718 42.1781 30.5512 42.0888Z" fill="#010101"/>
<path fill-rule="evenodd" clip-rule="evenodd" d="M30.7512 42.2314C30.7697 42.2614 30.6734 42.3176 30.6956 42.3364C30.7178 42.3551 30.6956 42.3364 30.666 42.3364C30.6964 42.3031 30.7249 42.268 30.7512 42.2314Z" fill="#010101"/>
<path fill-rule="evenodd" clip-rule="evenodd" d="M30.5524 42.2051C30.5524 42.2051 30.5149 42.2614 30.4999 42.2876C30.4849 42.3139 30.4999 42.2876 30.4774 42.2876C30.4549 42.2876 30.5224 42.2389 30.5524 42.2051Z" fill="#010101"/>
<path fill-rule="evenodd" clip-rule="evenodd" d="M30.5157 42.3214C30.5157 42.3446 30.4928 42.4026 30.47 42.4103C30.4806 42.3785 30.496 42.3484 30.5157 42.3214Z" fill="#010101"/>
<path fill-rule="evenodd" clip-rule="evenodd" d="M30.3773 42.4676C30.3472 42.5411 30.3059 42.6094 30.2551 42.6701C30.2551 42.6363 30.2921 42.6101 30.2551 42.6288C30.2995 42.578 30.3403 42.5241 30.3773 42.4676Z" fill="#010101"/>
<path fill-rule="evenodd" clip-rule="evenodd" d="M29.1858 42.2613C29.1858 42.2388 29.1858 42.2613 29.2083 42.2613C29.2307 42.2613 29.167 42.3101 29.1445 42.3401C29.1221 42.3701 29.2045 42.2613 29.1858 42.2613Z" fill="#010101"/>
<path fill-rule="evenodd" clip-rule="evenodd" d="M30.0626 42.9251C30.1033 42.9251 29.8812 43.2401 29.8886 43.1651C29.8886 43.1651 29.9071 43.1651 29.9108 43.1651C29.9478 43.0864 30.0293 43.0001 30.0626 42.9251Z" fill="#010101"/>
<path fill-rule="evenodd" clip-rule="evenodd" d="M28.9314 42.5426C28.9218 42.5769 28.9048 42.6086 28.8818 42.6355C28.8936 42.6021 28.9103 42.5708 28.9314 42.5426Z" fill="#010101"/>
<path fill-rule="evenodd" clip-rule="evenodd" d="M28.8742 42.7488C28.8436 42.815 28.8064 42.8778 28.7632 42.9363C28.7945 42.8706 28.8317 42.8078 28.8742 42.7488Z" fill="#010101"/>
<path fill-rule="evenodd" clip-rule="evenodd" d="M27.8424 42.3738C27.8086 42.4226 27.7937 42.4226 27.7637 42.4676C27.7637 42.4451 27.8311 42.3738 27.8424 42.3738Z" fill="#010101"/>
<path fill-rule="evenodd" clip-rule="evenodd" d="M28.6085 43.0414C28.6025 43.0884 28.583 43.1327 28.5522 43.1689C28.5621 43.123 28.5813 43.0796 28.6085 43.0414Z" fill="#010101"/>
<path fill-rule="evenodd" clip-rule="evenodd" d="M29.5083 43.8363C29.4877 43.8777 29.4625 43.9167 29.4333 43.9526C29.4509 43.9095 29.4763 43.8701 29.5083 43.8363Z" fill="#010101"/>
<path fill-rule="evenodd" clip-rule="evenodd" d="M28.5053 43.2926C28.5053 43.2926 28.4672 43.3584 28.471 43.3661C28.4779 43.3397 28.4895 43.3148 28.5053 43.2926Z" fill="#010101"/>
<path fill-rule="evenodd" clip-rule="evenodd" d="M27.3935 43.0451C27.3602 43.0826 27.1751 43.3826 27.3121 43.1576C27.3352 43.1173 27.3625 43.0795 27.3935 43.0451Z" fill="#010101"/>
<path fill-rule="evenodd" clip-rule="evenodd" d="M27.1799 43.0151C27.1588 43.0637 27.1311 43.1092 27.0974 43.1501C27.0974 43.1501 27.1574 43.0564 27.1799 43.0151Z" fill="#010101"/>
<path fill-rule="evenodd" clip-rule="evenodd" d="M28.0414 43.9938C28.0414 43.9938 27.9414 44.1663 27.9155 44.1963C27.9266 44.1663 28.0192 44.0501 28.0414 43.9938Z" fill="#010101"/>
<path fill-rule="evenodd" clip-rule="evenodd" d="M26.913 43.4088C26.8868 43.4576 26.8793 43.4988 26.853 43.5101C26.8602 43.4702 26.8815 43.4343 26.913 43.4088Z" fill="#010101"/>
<path fill-rule="evenodd" clip-rule="evenodd" d="M26.8106 43.5288C26.7878 43.5521 26.7573 43.6024 26.7496 43.5869C26.742 43.5714 26.7878 43.5637 26.8106 43.5288Z" fill="#010101"/>
<path fill-rule="evenodd" clip-rule="evenodd" d="M28.738 45.0363C28.7311 45.0757 28.7128 45.1122 28.6855 45.1413C28.6855 45.1413 28.7193 45.0738 28.738 45.0363Z" fill="#010101"/>
<path fill-rule="evenodd" clip-rule="evenodd" d="M26.8017 43.9413C26.8542 43.8813 26.7642 44.0051 26.8017 44.0013C26.8392 43.9976 26.768 44.0313 26.7605 44.0238C26.753 44.0163 26.8055 43.9601 26.8017 43.9413Z" fill="#010101"/>
<path fill-rule="evenodd" clip-rule="evenodd" d="M26.6058 43.8926C26.6058 43.8926 26.5646 43.9489 26.5496 43.9939C26.5646 43.9339 26.5758 43.9451 26.6058 43.8926Z" fill="#010101"/>
<path fill-rule="evenodd" clip-rule="evenodd" d="M26.5986 44.0014C26.6399 43.9601 26.5162 44.1214 26.5612 44.0951C26.4975 44.1701 26.5424 44.0726 26.5986 44.0014Z" fill="#010101"/>
<path fill-rule="evenodd" clip-rule="evenodd" d="M26.4094 44.1439C26.4094 44.1439 26.4094 44.1439 26.4094 44.1776C26.4094 44.1776 26.3869 44.2189 26.3719 44.2451C26.3569 44.2714 26.3757 44.1926 26.4094 44.1439Z" fill="#010101"/>
<path fill-rule="evenodd" clip-rule="evenodd" d="M26.3321 44.4176C26.3022 44.4524 26.2759 44.4901 26.2534 44.5301C26.2534 44.5301 26.3059 44.4626 26.3321 44.4176Z" fill="#010101"/>
<path fill-rule="evenodd" clip-rule="evenodd" d="M25.961 44.7739L25.8684 44.9464C25.8867 44.8828 25.9182 44.824 25.961 44.7739Z" fill="#010101"/>
<path fill-rule="evenodd" clip-rule="evenodd" d="M28.0858 46.0489C28.044 46.1243 27.9957 46.1958 27.9414 46.2626C27.9414 46.2626 28.008 46.1726 27.9747 46.1876C28.0191 46.1576 28.0303 46.1239 28.0858 46.0489Z" fill="#010101"/>
<path fill-rule="evenodd" clip-rule="evenodd" d="M24.8726 46.4239C24.8726 46.4239 24.7875 46.5101 24.8356 46.4726C24.8356 46.5026 24.7986 46.5064 24.7764 46.5514C24.8023 46.5044 24.8347 46.4615 24.8726 46.4239Z" fill="#010101"/>
<path fill-rule="evenodd" clip-rule="evenodd" d="M24.2848 47.3163C24.2666 47.3594 24.2427 47.3997 24.2136 47.4363C24.2309 47.3928 24.2549 47.3523 24.2848 47.3163Z" fill="#010101"/>
<path fill-rule="evenodd" clip-rule="evenodd" d="M26.5023 48.7863C26.5023 48.7863 26.4536 48.8576 26.4536 48.8726C26.4703 48.861 26.4855 48.8471 26.4985 48.8313C26.4985 48.8651 26.4348 48.9176 26.4348 48.8838C26.4348 48.8501 26.4723 48.8088 26.5023 48.7863Z" fill="#010101"/>
<path fill-rule="evenodd" clip-rule="evenodd" d="M24.1885 47.6726C24.1885 47.7139 24.1585 47.6951 24.1248 47.7701C24.121 47.7701 24.1585 47.7176 24.1885 47.6726Z" fill="#010101"/>
<path fill-rule="evenodd" clip-rule="evenodd" d="M24.1064 47.6951C24.0754 47.754 24.0382 47.8093 23.9954 47.8601C24.0245 47.8001 24.0619 47.7445 24.1064 47.6951Z" fill="#010101"/>
<path fill-rule="evenodd" clip-rule="evenodd" d="M24.1212 47.7926C24.0916 47.8451 24.0508 47.9013 23.999 47.9763C23.999 47.9388 24.0842 47.8451 24.099 47.8038C24.1138 47.7626 24.1101 47.8076 24.1212 47.7926Z" fill="#010101"/>
<path fill-rule="evenodd" clip-rule="evenodd" d="M23.414 48.4976C23.414 48.5463 23.34 48.5951 23.3177 48.6513C23.2955 48.6326 23.377 48.5538 23.414 48.4976Z" fill="#010101"/>
<path fill-rule="evenodd" clip-rule="evenodd" d="M23.4592 48.5276C23.4855 48.5276 23.4255 48.5801 23.4592 48.5688C23.493 48.5576 23.4368 48.5688 23.4143 48.6101C23.3918 48.6513 23.4255 48.5801 23.4592 48.5276Z" fill="#010101"/>
<path fill-rule="evenodd" clip-rule="evenodd" d="M23.3558 48.5314C23.3334 48.5501 23.2996 48.6101 23.2809 48.6251C23.2622 48.6401 23.3221 48.5239 23.3558 48.5314Z" fill="#010101"/>
<path fill-rule="evenodd" clip-rule="evenodd" d="M23.2622 48.8239C23.2193 48.9135 23.1645 48.9967 23.0994 49.0714C23.1085 49.0388 23.1235 49.0083 23.1438 48.9814C23.1105 49.0564 23.2548 48.8501 23.203 48.8801C23.2326 48.8351 23.2289 48.8801 23.2622 48.8239Z" fill="#010101"/>
<path fill-rule="evenodd" clip-rule="evenodd" d="M22.8941 49.4314C22.8559 49.4978 22.8598 49.4314 22.8254 49.5056C22.8331 49.5017 22.8864 49.4431 22.8941 49.4314Z" fill="#010101"/>
<path fill-rule="evenodd" clip-rule="evenodd" d="M22.6526 49.7014C22.6526 49.7314 22.5927 49.7989 22.5702 49.8589C22.5589 49.8401 22.6376 49.7464 22.6526 49.7014Z" fill="#010101"/>
<path fill-rule="evenodd" clip-rule="evenodd" d="M22.523 49.6938C22.5043 49.6938 22.4518 49.8101 22.4443 49.7876L22.523 49.6938Z" fill="#010101"/>
<path fill-rule="evenodd" clip-rule="evenodd" d="M24.3248 52.0189C24.3248 52.0189 24.284 52.1014 24.2396 52.1764C24.2396 52.1764 24.2396 52.1764 24.2063 52.2026C24.2248 52.1614 24.2914 52.0864 24.3248 52.0189Z" fill="#010101"/>
<path fill-rule="evenodd" clip-rule="evenodd" d="M21.7567 50.6613C21.7567 50.6913 21.6892 50.7663 21.6742 50.8001C21.6667 50.7776 21.7267 50.6988 21.7567 50.6613Z" fill="#010101"/>
<path fill-rule="evenodd" clip-rule="evenodd" d="M23.2009 53.7213C23.1917 53.7543 23.1775 53.7856 23.1589 53.8142C23.1246 53.822 23.1704 53.7639 23.2009 53.7213Z" fill="#010101"/>
<path fill-rule="evenodd" clip-rule="evenodd" d="M22.2109 55.2926C22.2109 55.2926 22.1887 55.3451 22.2109 55.3151C22.1607 55.4097 22.1012 55.4989 22.0332 55.5814C22.0961 55.4989 22.1369 55.4201 22.2109 55.2926Z" fill="#010101"/>
<path fill-rule="evenodd" clip-rule="evenodd" d="M22.134 55.2926C22.134 55.3339 22.0853 55.3976 22.0703 55.4426C22.0553 55.4089 22.0853 55.3714 22.134 55.2926Z" fill="#010101"/>
<path fill-rule="evenodd" clip-rule="evenodd" d="M21.9889 55.5738C21.9889 55.5738 22.0111 55.5476 22.0259 55.5288C22.0407 55.5101 21.9741 55.6301 21.9704 55.6563C21.9667 55.6826 21.9704 55.6563 21.9704 55.6338C21.9704 55.6113 21.9704 55.6338 21.9333 55.6338C21.9704 55.5701 21.9926 55.5251 22.0185 55.4763C22.0444 55.4276 22.0518 55.4463 22.0629 55.4763C22.074 55.5063 22 55.5363 21.9889 55.5738Z" fill="#010101"/>
<path fill-rule="evenodd" clip-rule="evenodd" d="M21.9741 55.6826C21.9741 55.7126 21.9297 55.7613 21.9075 55.8026C21.8852 55.8438 21.9408 55.8026 21.863 55.8701C21.8968 55.8056 21.9338 55.7431 21.9741 55.6826Z" fill="#010101"/>
<path fill-rule="evenodd" clip-rule="evenodd" d="M21.6335 56.1926C21.6029 56.2587 21.5656 56.3216 21.5225 56.3801C21.555 56.315 21.5921 56.2523 21.6335 56.1926Z" fill="#010101"/>
<path fill-rule="evenodd" clip-rule="evenodd" d="M21.3862 56.5039C21.3563 56.5304 21.36 56.5455 21.33 56.5872C21.3 56.6289 21.3787 56.4774 21.3862 56.5039Z" fill="#010101"/>
<path fill-rule="evenodd" clip-rule="evenodd" d="M21.2013 56.6238C21.1834 56.6588 21.1634 56.6926 21.1414 56.7251C21.1001 56.7326 21.1901 56.6238 21.2013 56.6238Z" fill="#010101"/>
<path fill-rule="evenodd" clip-rule="evenodd" d="M20.4932 56.7064C20.4669 56.7599 20.4346 56.8103 20.397 56.8564C20.4256 56.8042 20.4578 56.7541 20.4932 56.7064Z" fill="#010101"/>
<path fill-rule="evenodd" clip-rule="evenodd" d="M20.2283 57.4451C20.2283 57.4451 20.2283 57.4799 20.194 57.5186C20.194 57.5186 20.2207 57.4528 20.2283 57.4451Z" fill="#010101"/>
<path fill-rule="evenodd" clip-rule="evenodd" d="M20.2156 57.5088C20.2156 57.5426 20.1749 57.5688 20.1453 57.6251C20.1157 57.6813 20.1453 57.5688 20.1971 57.5201C20.249 57.4713 20.2082 57.5201 20.2156 57.5088Z" fill="#010101"/>
<path fill-rule="evenodd" clip-rule="evenodd" d="M27.4603 42.9326C27.5259 42.8487 27.5829 42.7582 27.6306 42.6626C27.6306 42.6926 27.6528 42.6176 27.675 42.6214C27.6972 42.6251 27.501 42.8726 27.4825 42.9438C27.4825 42.9438 27.5158 42.9064 27.5306 42.8801C27.5454 42.8539 27.4418 43.0226 27.4307 43.0039C27.4751 42.9401 27.4973 42.9101 27.4603 42.9326Z" fill="#010101"/>
<path fill-rule="evenodd" clip-rule="evenodd" d="M29.2669 44.5901C29.2446 44.6239 29.2669 44.6201 29.2298 44.6614C29.1731 44.7267 29.128 44.8016 29.0966 44.8826C29.0707 44.9126 29.067 44.9126 29.0744 44.8826C28.9596 45.0851 28.8523 45.2201 28.7597 45.4114C28.7597 45.3589 28.6412 45.5651 28.6894 45.5276C28.5044 45.7761 28.3397 46.0395 28.197 46.3151C28.2669 46.2198 28.33 46.1195 28.3858 46.0151C28.3858 46.0639 28.4376 45.9439 28.4376 45.9289C28.9041 45.2164 29.4149 44.4289 29.8332 43.8139C29.9135 43.6948 29.984 43.5694 30.0443 43.4389C30.103 43.3762 30.1528 43.3055 30.1923 43.2289C30.1923 43.2814 30.2627 43.1276 30.2701 43.1576C30.3108 43.0789 30.3885 43.0039 30.3959 42.9589C30.3219 43.0564 30.2923 43.1314 30.2516 43.1501C30.3057 43.0576 30.369 42.971 30.4404 42.8914C30.4886 42.7901 30.5495 42.6955 30.6217 42.6101C30.6217 42.5876 30.681 42.5239 30.6995 42.4714C30.718 42.4189 30.6699 42.4714 30.6995 42.4714C30.7291 42.4714 30.8068 42.3326 30.8327 42.2726C30.8327 42.2951 30.8031 42.3139 30.7994 42.3026C30.7957 42.2914 30.8402 42.2576 30.8698 42.2051C30.8994 42.1526 30.8142 42.2726 30.792 42.2951C30.7502 42.3857 30.6967 42.4702 30.6328 42.5464C30.6491 42.4955 30.677 42.4492 30.7143 42.4114C30.7143 42.4114 30.6847 42.4376 30.6773 42.4339C30.6403 42.4901 30.6514 42.4976 30.6143 42.5576C30.6143 42.5576 30.6143 42.5014 30.6143 42.4751C30.5736 42.5351 30.6143 42.5314 30.5662 42.5839C30.5847 42.5276 30.5181 42.6364 30.5662 42.5839C30.5477 42.6401 30.5033 42.6664 30.4811 42.6926C30.5144 42.6926 30.4255 42.7714 30.4181 42.8164C30.4478 42.7601 30.4922 42.7301 30.47 42.7751C30.4478 42.8201 30.4181 42.8426 30.37 42.9026C30.4181 42.8239 30.37 42.8201 30.37 42.8801L30.1738 43.1539L30.2145 43.1089C30.1479 43.2101 30.1442 43.1839 30.1516 43.2101C30.159 43.2364 30.0961 43.2589 30.0591 43.2964C30.0887 43.2964 30.0146 43.3714 30.0331 43.3714C30.0517 43.3714 30.0961 43.2701 30.0961 43.2926C30.0464 43.3624 30.0006 43.435 29.9591 43.5101C29.9591 43.5101 29.9369 43.5101 29.9332 43.5101C29.9295 43.5101 30.0183 43.3939 30.0109 43.3714C29.9618 43.4347 29.9231 43.5056 29.8962 43.5814C29.8555 43.6151 29.8258 43.6826 29.8369 43.6826C29.8481 43.6826 29.8073 43.6826 29.811 43.6826C29.7733 43.7528 29.726 43.8172 29.6704 43.8739C29.6704 43.8514 29.6704 43.8514 29.6704 43.8326C29.6501 43.8831 29.6184 43.928 29.5778 43.9639C29.5137 44.0987 29.4329 44.2248 29.3372 44.3389C29.2902 44.4418 29.2331 44.5398 29.1669 44.6314C29.1669 44.6651 29.2335 44.5339 29.2484 44.5414C29.2289 44.6119 29.1905 44.6755 29.1373 44.7251C29.1373 44.7251 29.1891 44.6539 29.1373 44.6689C29.0299 44.8751 29.2039 44.6689 29.2669 44.5901ZM30.4033 42.8539C30.3737 42.9101 30.37 42.8876 30.3478 42.9139C30.3643 42.892 30.3829 42.8719 30.4033 42.8539ZM30.2997 42.9739C30.2757 43.0578 30.2326 43.1349 30.1738 43.1989H30.1553C30.1738 43.1689 30.2145 43.1389 30.2108 43.1164C30.2071 43.0939 30.2108 43.1426 30.2108 43.1426C30.2108 43.1426 30.2367 43.0526 30.2997 42.9739ZM29.7777 43.7689C29.7489 43.8435 29.7033 43.9103 29.6445 43.9639C29.6889 43.9001 29.7444 43.8026 29.7777 43.7689ZM29.6815 43.8476C29.6603 43.9034 29.6303 43.9554 29.5926 44.0014C29.6114 43.9444 29.6416 43.892 29.6815 43.8476ZM29.6222 43.9976C29.6063 44.0347 29.5864 44.0699 29.563 44.1026C29.5371 44.1064 29.6148 44.0201 29.6148 43.9976H29.6222ZM29.5408 44.0426C29.5408 44.0426 29.5408 44.0726 29.5112 44.1176C29.4816 44.1626 29.5112 44.0839 29.5408 44.0426ZM29.5408 44.1139C29.5408 44.1626 29.3964 44.3239 29.4038 44.2826C29.4572 44.2323 29.5044 44.1756 29.5445 44.1139H29.5408ZM29.4594 44.2714C29.4816 44.2489 29.4149 44.3426 29.3779 44.4064C29.3742 44.3764 29.4334 44.3051 29.4631 44.2714H29.4594ZM29.3705 44.3089C29.3927 44.3089 29.3705 44.3726 29.3964 44.3089L29.2446 44.5189C29.2756 44.4418 29.3194 44.3708 29.3742 44.3089H29.3705Z" fill="#010101"/>
<path fill-rule="evenodd" clip-rule="evenodd" d="M33.7276 36.0176C33.7017 36.0664 33.6573 36.1301 33.6091 36.2014C33.6433 36.1367 33.6829 36.0753 33.7276 36.0176Z" fill="#010101"/>
<path fill-rule="evenodd" clip-rule="evenodd" d="M33.8274 37.1238C33.805 37.1791 33.7751 37.2308 33.7385 37.2776C33.7533 37.2551 33.8015 37.1876 33.8274 37.1238Z" fill="#010101"/>
<path fill-rule="evenodd" clip-rule="evenodd" d="M33.621 37.7051C33.621 37.7389 33.5461 37.8214 33.5611 37.8326C33.5761 37.8439 33.5873 37.7314 33.621 37.7051Z" fill="#010101"/>
<path fill-rule="evenodd" clip-rule="evenodd" d="M33.6237 38.2188C33.6237 38.2526 33.7052 38.1588 33.7311 38.0951C33.7311 38.1326 33.6163 38.2901 33.583 38.3763C33.6163 38.3126 33.583 38.2938 33.6311 38.2676C33.6793 38.2413 33.6311 38.2451 33.6015 38.2676C33.5719 38.2901 33.6311 38.2226 33.6237 38.2188Z" fill="#010101"/>
<path fill-rule="evenodd" clip-rule="evenodd" d="M31.1955 37.4501C31.1215 37.6001 30.9364 37.8251 30.8882 37.9564C30.8882 37.9564 30.829 38.0351 30.8142 38.0276C30.9327 37.8701 30.9475 37.7914 31.0474 37.6826C31.0866 37.5989 31.1363 37.5207 31.1955 37.4501Z" fill="#010101"/>
<path fill-rule="evenodd" clip-rule="evenodd" d="M32.91 38.5713C32.8875 38.5713 32.8913 38.5938 32.8613 38.6351C32.8313 38.6763 32.91 38.5676 32.8613 38.5938C32.8913 38.5451 32.9212 38.5038 32.9287 38.5188C32.9258 38.5324 32.9258 38.5465 32.9287 38.5601C32.9287 38.5601 32.9063 38.5826 32.91 38.5713Z" fill="#010101"/>
<path fill-rule="evenodd" clip-rule="evenodd" d="M32.5763 39.0851C32.5541 39.1151 32.5282 39.1564 32.5208 39.1451C32.5511 39.1016 32.5771 39.0551 32.5985 39.0064C32.5985 39.0064 32.5985 39.0064 32.5726 39.0364C32.6366 38.9054 32.7203 38.7852 32.8206 38.6801C32.8206 38.6801 32.8206 38.7214 32.8206 38.7401C32.8206 38.7589 32.6096 39.0176 32.5763 39.0851Z" fill="#010101"/>
<path fill-rule="evenodd" clip-rule="evenodd" d="M32.7355 39.4338C32.7095 39.4713 32.7096 39.4863 32.6725 39.5351C32.6725 39.5351 32.6725 39.5051 32.6725 39.4938C32.5282 39.7563 32.2357 40.1088 32.0987 40.3901C32.0099 40.4613 31.9877 40.6001 31.9248 40.6338C31.947 40.6338 31.9248 40.6338 31.947 40.6338C32.0062 40.5138 32.1358 40.3451 32.1654 40.3526C32.1358 40.3526 32.1654 40.3938 32.1135 40.4351C32.158 40.4051 32.0617 40.4763 32.1135 40.4351L32.0358 40.5063C32.0136 40.5438 31.9988 40.5776 31.9803 40.6076C31.9618 40.6376 31.9803 40.6076 31.9581 40.6076C31.9359 40.6076 31.9062 40.6938 31.884 40.7238C31.9211 40.7238 31.9803 40.6076 32.0136 40.5963C32.0469 40.5851 32.0136 40.5626 32.0654 40.5101C32.1173 40.4576 32.0654 40.5101 32.0876 40.5101C32.1098 40.5101 32.1469 40.4388 32.1617 40.3901C32.1358 40.4238 32.1284 40.4201 32.1358 40.3901C32.1927 40.3007 32.2558 40.2155 32.3246 40.1351C32.3246 40.1126 32.3579 40.0601 32.4023 39.9963C32.4023 39.9963 32.4023 39.9963 32.4023 39.9701C32.4023 39.9438 32.4356 39.9438 32.4541 39.9326C32.4726 39.9213 32.3986 40.0338 32.4319 39.9888C32.4652 39.9438 32.5134 39.8801 32.5022 39.8688C32.4911 39.8576 32.4615 39.9176 32.4541 39.9101C32.4467 39.9026 32.4541 39.8688 32.5171 39.8088C32.5128 39.8008 32.5106 39.7917 32.5106 39.7826C32.5106 39.7734 32.5128 39.7644 32.5171 39.7563C32.5689 39.7301 32.5689 39.6588 32.6096 39.6026C32.6367 39.5685 32.6726 39.5425 32.7133 39.5276C32.7429 39.4751 32.7577 39.4601 32.7651 39.4413C32.7725 39.4226 32.7318 39.4676 32.7133 39.4826C32.7602 39.3954 32.8147 39.3125 32.8761 39.2351C32.8838 39.1949 32.9017 39.1574 32.928 39.1263C32.8872 39.2051 32.7836 39.4076 32.7355 39.4338ZM32.3172 40.0826C32.3172 40.0826 32.3172 40.0826 32.3394 40.0826C32.3263 40.1118 32.3102 40.1394 32.2912 40.1651C32.2542 40.1726 32.3542 40.0676 32.3172 40.0826Z" fill="#010101"/>
<path fill-rule="evenodd" clip-rule="evenodd" d="M30.7881 38.1026C30.814 38.1026 30.7252 38.1739 30.6956 38.2339C30.7155 38.1771 30.7442 38.1239 30.7807 38.0764C30.7733 38.0989 30.7252 38.1626 30.7881 38.1026Z" fill="#010101"/>
<path fill-rule="evenodd" clip-rule="evenodd" d="M32.2393 39.5501C32.2615 39.5201 32.2393 39.5239 32.2726 39.4789C32.2988 39.4673 32.3217 39.4492 32.3392 39.4264C32.3392 39.4264 32.3392 39.4601 32.3392 39.4639C32.3392 39.4676 32.2578 39.5764 32.2171 39.5764C32.206 39.5576 32.2319 39.5464 32.2393 39.5501Z" fill="#010101"/>
<path fill-rule="evenodd" clip-rule="evenodd" d="M32.2077 39.6026C32.2305 39.6026 32.2077 39.6374 32.1848 39.6336C32.1619 39.6297 32.1505 39.6839 32.1543 39.6877C32.1581 39.6916 32.1543 39.6568 32.1543 39.6258C32.1543 39.5949 32.2077 39.6297 32.2077 39.6026Z" fill="#010101"/>
<path fill-rule="evenodd" clip-rule="evenodd" d="M30.3773 38.5714C30.3773 38.5714 30.2737 38.7251 30.2552 38.7739C30.2367 38.8226 30.3699 38.5264 30.3995 38.5376C30.4292 38.5489 30.3847 38.5714 30.3773 38.5714Z" fill="#010101"/>
<path fill-rule="evenodd" clip-rule="evenodd" d="M30.2144 38.7963C30.2144 38.7701 30.1367 38.8751 30.1033 38.9126C30.0483 39.0186 29.9851 39.1202 29.9146 39.2163C29.9861 39.0666 30.0797 38.9288 30.1922 38.8076C30.2551 38.7176 30.2588 38.7063 30.3181 38.6276C30.2588 38.7513 30.0885 39.0026 30.0145 39.1151C30.0747 39.0048 30.1415 38.8984 30.2144 38.7963Z" fill="#010101"/>
<path fill-rule="evenodd" clip-rule="evenodd" d="M31.7693 40.2626C31.8174 40.1989 31.7693 40.2626 31.7878 40.2626L31.7323 40.3451C31.7323 40.3076 31.7323 40.3451 31.7026 40.3451C31.673 40.3451 31.7248 40.3676 31.6656 40.4389C31.6656 40.4389 31.6656 40.4014 31.6656 40.3976C31.6349 40.464 31.5937 40.5248 31.5435 40.5776C31.5435 40.5439 31.5805 40.5139 31.6101 40.4801C31.6397 40.4464 31.6101 40.4314 31.6101 40.4164C31.6283 40.3969 31.6445 40.3755 31.6582 40.3526C31.6582 40.3526 31.6582 40.3864 31.6286 40.4051C31.599 40.4239 31.773 40.2889 31.7693 40.2626Z" fill="#010101"/>
<path fill-rule="evenodd" clip-rule="evenodd" d="M29.8931 39.2951C29.8726 39.3133 29.8538 39.3334 29.8369 39.3551C29.8369 39.3551 29.8594 39.3101 29.8744 39.2839C29.8894 39.2576 29.8744 39.3064 29.9119 39.2614C29.8894 39.3026 29.9119 39.3101 29.8669 39.3701C29.8219 39.4301 29.8856 39.3214 29.8931 39.2951Z" fill="#010101"/>
<path fill-rule="evenodd" clip-rule="evenodd" d="M29.7971 39.5126C29.7971 39.5614 29.7297 39.6064 29.7147 39.6476C29.7072 39.6251 29.7747 39.5501 29.7971 39.5126Z" fill="#010101"/>
<path fill-rule="evenodd" clip-rule="evenodd" d="M31.5137 40.6601C31.4915 40.7013 31.473 40.7238 31.4619 40.7238C31.4508 40.7238 31.4619 40.7463 31.4619 40.7501L31.4175 40.8138C31.4619 40.7238 31.3916 40.8401 31.373 40.8363C31.436 40.7688 31.4656 40.6863 31.5137 40.6601Z" fill="#010101"/>
<path fill-rule="evenodd" clip-rule="evenodd" d="M31.2437 41.0726C31.2881 41.0126 31.3066 40.9638 31.3288 40.9413C31.351 40.9188 31.3288 40.9751 31.3288 40.9826C31.3288 40.9901 31.2215 41.1288 31.2363 41.0651C31.2511 41.0013 31.2289 41.0763 31.2437 41.0726Z" fill="#010101"/>
<path fill-rule="evenodd" clip-rule="evenodd" d="M30.4255 40.7913C30.4255 40.7913 30.5455 40.5813 30.4967 40.6713C30.448 40.7613 30.478 40.7276 30.4255 40.7913Z" fill="#010101"/>
<path fill-rule="evenodd" clip-rule="evenodd" d="M30.4106 40.7801C30.3787 40.8385 30.3416 40.8937 30.2996 40.9451C30.3107 40.9113 30.3551 40.8513 30.4106 40.7801Z" fill="#010101"/>
<path fill-rule="evenodd" clip-rule="evenodd" d="M30.8771 41.5226C30.8771 41.5226 30.9179 41.4738 30.929 41.4851C30.8512 41.6051 30.8216 41.6426 30.7698 41.7363C30.7698 41.6913 30.7698 41.7138 30.7698 41.6876L30.7994 41.6388C30.7994 41.6388 30.7994 41.6726 30.7735 41.6913C30.8224 41.6456 30.8582 41.5873 30.8771 41.5226Z" fill="#010101"/>
<path fill-rule="evenodd" clip-rule="evenodd" d="M30.829 41.8639C30.7994 41.9239 30.7513 41.9689 30.6995 42.0626C30.7334 41.9906 30.777 41.9238 30.829 41.8639Z" fill="#010101"/>
<path fill-rule="evenodd" clip-rule="evenodd" d="M30.8918 42.1526C30.9218 42.1001 30.9181 42.1526 30.9556 42.0776C30.9556 42.1001 30.9143 42.1639 30.9256 42.1751C30.8806 42.2126 30.9593 42.0851 30.8918 42.1526Z" fill="#010101"/>
<path fill-rule="evenodd" clip-rule="evenodd" d="M30.6735 42.0251C30.6439 42.0513 30.5995 42.1226 30.5625 42.1638C30.507 42.2351 30.6624 41.9988 30.6735 42.0251Z" fill="#010101"/>
<path fill-rule="evenodd" clip-rule="evenodd" d="M30.6549 42.3738C30.6549 42.3738 30.6549 42.3738 30.6549 42.4001C30.6549 42.4263 30.6031 42.4001 30.5698 42.4901C30.5365 42.5801 30.5883 42.4488 30.5698 42.4488C30.6021 42.4288 30.6308 42.4034 30.6549 42.3738Z" fill="#010101"/>
<path fill-rule="evenodd" clip-rule="evenodd" d="M30.4662 42.3139C30.4662 42.3476 30.3922 42.4189 30.3626 42.4601C30.333 42.5014 30.3626 42.4376 30.3626 42.4339C30.3293 42.5089 30.3256 42.4751 30.2849 42.5276C30.2441 42.5801 30.2849 42.5276 30.2849 42.5651C30.2849 42.6026 30.2293 42.6364 30.2219 42.6214C30.264 42.57 30.3012 42.5148 30.333 42.4564C30.351 42.4276 30.3708 42.4001 30.3922 42.3739C30.3922 42.3739 30.3626 42.3739 30.3922 42.3476C30.4218 42.3214 30.3441 42.4226 30.3478 42.3889L30.4255 42.2951C30.3811 42.3739 30.4255 42.3364 30.4255 42.3326C30.3959 42.3589 30.3996 42.3739 30.3737 42.4151C30.3478 42.4564 30.4292 42.3739 30.4662 42.3139Z" fill="#010101"/>
<path fill-rule="evenodd" clip-rule="evenodd" d="M30.6069 42.4901C30.5784 42.5185 30.5547 42.5515 30.5366 42.5876C30.5366 42.5876 30.5366 42.5876 30.4995 42.6138C30.4625 42.6401 30.5921 42.4826 30.6069 42.4901Z" fill="#010101"/>
<path fill-rule="evenodd" clip-rule="evenodd" d="M30.2403 42.6176C30.2338 42.6377 30.2227 42.656 30.2079 42.671C30.1931 42.686 30.175 42.6972 30.1552 42.7038C30.1519 42.724 30.1444 42.7432 30.133 42.7601C30.1293 42.7038 30.1996 42.6738 30.2403 42.6176Z" fill="#010101"/>
<path fill-rule="evenodd" clip-rule="evenodd" d="M27.6083 42.3964C27.6083 42.4301 27.5046 42.5426 27.4602 42.6064C27.5033 42.5321 27.5529 42.4618 27.6083 42.3964Z" fill="#010101"/>
<path fill-rule="evenodd" clip-rule="evenodd" d="M28.5042 43.2739C28.5305 43.2439 28.5417 43.2139 28.5042 43.2401C28.5605 43.1501 28.5829 43.1426 28.538 43.2401C28.538 43.2401 28.4967 43.2626 28.5005 43.2851C28.5042 43.3076 28.5042 43.2739 28.5042 43.2739Z" fill="#010101"/>
<path fill-rule="evenodd" clip-rule="evenodd" d="M28.1354 43.8363C28.127 43.8703 28.1113 43.902 28.0896 43.9292C28.0954 43.8943 28.1113 43.862 28.1354 43.8363Z" fill="#010101"/>
<path fill-rule="evenodd" clip-rule="evenodd" d="M27.0234 43.2888C26.9946 43.3491 26.9572 43.4047 26.9124 43.4538C26.9198 43.4276 26.9864 43.3563 27.0234 43.2888Z" fill="#010101"/>
<path fill-rule="evenodd" clip-rule="evenodd" d="M25.7764 45.1001L25.7989 45.0663C25.7727 45.1151 25.7614 45.1526 25.7277 45.2088C25.724 45.1901 25.7877 45.1226 25.7764 45.1001Z" fill="#010101"/>
<path fill-rule="evenodd" clip-rule="evenodd" d="M25.3762 45.7489C25.3762 45.7114 25.4946 45.5914 25.4243 45.6589C25.5256 45.5426 25.616 45.417 25.6945 45.2839C25.6527 45.3444 25.607 45.402 25.5576 45.4564C25.6168 45.3364 25.6908 45.2914 25.7204 45.2089C25.7204 45.2089 25.6612 45.3064 25.6464 45.3026C25.6316 45.2989 25.7463 45.1714 25.7352 45.1489C25.4687 45.5651 25.2466 45.8989 24.9727 46.3039C24.9949 46.2814 25.0282 46.2289 25.0504 46.2101C25.0726 46.1914 25.0282 46.2439 25.0504 46.2476C25.0726 46.2514 25.0726 46.2139 25.08 46.2176C25.0874 46.2214 24.9801 46.3751 25.0171 46.3414C25.0387 46.2852 25.0714 46.2341 25.1133 46.1914C25.1133 46.1464 25.0689 46.2139 25.1133 46.1426C25.1577 46.0714 25.2836 45.8576 25.3428 45.8201C25.3169 45.8876 25.1726 46.0489 25.1763 46.1126C25.2324 46.0137 25.2981 45.9208 25.3725 45.8351C25.3709 45.8164 25.3709 45.7976 25.3725 45.7789C25.4021 45.6889 25.3539 45.7489 25.3762 45.7489ZM25.5464 45.4564C25.5464 45.4564 25.5131 45.5389 25.4872 45.5614C25.4996 45.5199 25.5183 45.4807 25.5427 45.4451L25.5464 45.4564Z" fill="#010101"/>
<path fill-rule="evenodd" clip-rule="evenodd" d="M25.9138 45.3101C25.9138 45.3101 25.8689 45.3813 25.8501 45.4113C25.8501 45.3851 25.8314 45.4413 25.8501 45.4113C25.8501 45.4376 25.8726 45.3476 25.9138 45.3101Z" fill="#010101"/>
<path fill-rule="evenodd" clip-rule="evenodd" d="M25.1023 46.3301C25.0672 46.4092 25.0224 46.4836 24.969 46.5514C25.0096 46.4753 25.0541 46.4015 25.1023 46.3301Z" fill="#010101"/>
<path fill-rule="evenodd" clip-rule="evenodd" d="M24.9986 46.4314C24.9986 46.4089 24.9986 46.4314 25.0245 46.4314C25.0504 46.4314 24.9467 46.5889 24.9282 46.5589C24.9689 46.4989 25.0245 46.4464 24.9986 46.4314Z" fill="#010101"/>
<path fill-rule="evenodd" clip-rule="evenodd" d="M24.4804 46.9976C24.4804 46.9976 24.4804 46.9976 24.5026 46.9976C24.4696 47.0635 24.4272 47.1242 24.3767 47.1776C24.3952 47.1213 24.4322 47.0651 24.4804 46.9976Z" fill="#010101"/>
<path fill-rule="evenodd" clip-rule="evenodd" d="M26.6533 48.5707C26.68 48.5243 26.7334 48.4856 26.7105 48.532C26.6876 48.5784 26.6533 48.5436 26.6533 48.5707Z" fill="#010101"/>
<path fill-rule="evenodd" clip-rule="evenodd" d="M24.4322 47.3314C24.4322 47.3014 24.4618 47.3014 24.4803 47.2676C24.4803 47.3164 24.4507 47.3351 24.4063 47.4101C24.3619 47.4851 24.4544 47.3201 24.4322 47.3314Z" fill="#010101"/>
<path fill-rule="evenodd" clip-rule="evenodd" d="M24.11 47.7626C24.0804 47.8376 23.973 47.9651 23.9397 48.0551C23.9841 47.9507 24.0413 47.8525 24.11 47.7626Z" fill="#010101"/>
<path fill-rule="evenodd" clip-rule="evenodd" d="M23.9631 47.9327C23.9631 47.9327 23.9631 47.9327 23.9326 47.9598C23.9021 47.9869 23.9326 47.9095 23.9707 47.8902C24.0089 47.8708 23.9707 47.983 23.9402 47.9637L23.9631 47.9327Z" fill="#010101"/>
<path fill-rule="evenodd" clip-rule="evenodd" d="M26.0868 49.4576C26.1127 49.4576 26.0016 49.5626 25.9868 49.6076C25.9868 49.5551 25.9498 49.6301 25.9202 49.6601C25.9202 49.6189 25.972 49.5776 26.0164 49.5101C25.9757 49.5926 26.0534 49.4989 26.0868 49.4576Z" fill="#010101"/>
<path fill-rule="evenodd" clip-rule="evenodd" d="M26.372 49.9301C26.372 49.9301 26.4095 49.8701 26.4207 49.8439C26.432 49.8176 26.3982 49.9376 26.3533 50.0126L26.372 49.9301Z" fill="#010101"/>
<path fill-rule="evenodd" clip-rule="evenodd" d="M23.3918 48.6251C23.3918 48.6551 23.3363 48.7076 23.303 48.7563C23.3215 48.7488 23.3585 48.6851 23.3918 48.6251Z" fill="#010101"/>
<path fill-rule="evenodd" clip-rule="evenodd" d="M24.643 51.6814C24.643 51.6814 24.6615 51.6813 24.6763 51.6326C24.6763 51.6626 24.6504 51.6926 24.6986 51.6326C24.6986 51.6326 24.643 51.7338 24.6134 51.7676C24.5838 51.8013 24.6912 51.6326 24.643 51.6814Z" fill="#010101"/>
<path fill-rule="evenodd" clip-rule="evenodd" d="M23.3919 53.5114C23.4215 53.4664 23.3289 53.6314 23.3252 53.6576C23.2865 53.6851 23.2558 53.7227 23.2364 53.7664C23.192 53.7664 23.2956 53.6801 23.3438 53.6014C23.3438 53.6014 23.3067 53.6389 23.2882 53.6576C23.2697 53.6764 23.3475 53.5939 23.3919 53.5114Z" fill="#010101"/>
<path fill-rule="evenodd" clip-rule="evenodd" d="M22.9958 53.9988C23.0218 53.9688 23.0588 53.8976 23.0625 53.9201C22.9921 54.0138 23.007 54.0476 23.0625 54.0063C23.118 53.9651 23.0625 54.0476 23.0625 54.0476C22.9847 54.1151 23.0107 54.0326 22.9958 53.9988Z" fill="#010101"/>
<path fill-rule="evenodd" clip-rule="evenodd" d="M22.8588 54.3251C22.8588 54.3026 22.7996 54.3589 22.8181 54.3251C22.8366 54.2914 22.8403 54.3251 22.881 54.2951C22.8625 54.3214 22.881 54.3289 22.881 54.3326C22.8033 54.4264 22.7959 54.4751 22.707 54.5951C22.7144 54.5633 22.7312 54.5345 22.7552 54.5126C22.7144 54.5351 22.7811 54.4451 22.807 54.3814H22.8292C22.8375 54.3618 22.8474 54.343 22.8588 54.3251Z" fill="#010101"/>
<path fill-rule="evenodd" clip-rule="evenodd" d="M22.6107 55.1239C22.6107 55.0826 22.5589 55.1651 22.533 55.1914C22.5478 55.1239 22.6884 55.0001 22.6107 55.1239Z" fill="#010101"/>
<path fill-rule="evenodd" clip-rule="evenodd" d="M21.8594 55.7051C21.8816 55.6676 22.0149 55.4726 21.9001 55.6601L21.8594 55.7051Z" fill="#010101"/>
<path fill-rule="evenodd" clip-rule="evenodd" d="M21.7446 55.9151C21.7779 55.8551 21.8076 55.7989 21.8668 55.7089C21.8668 55.7576 21.9001 55.7089 21.9149 55.7089C21.8908 55.7569 21.8567 55.7991 21.815 55.8326C21.815 55.8589 21.815 55.8326 21.815 55.8589C21.7886 55.8896 21.7662 55.9236 21.7483 55.9601C21.7298 55.9714 21.7928 55.8739 21.7446 55.9151Z" fill="#010101"/>
<path fill-rule="evenodd" clip-rule="evenodd" d="M21.7223 55.8738C21.6397 56.0612 21.5406 56.2407 21.4261 56.4101C21.4261 56.4288 21.4261 56.4288 21.4261 56.4363C21.4261 56.4438 21.3817 56.4813 21.3817 56.4551C21.3336 56.5263 21.3373 56.5338 21.3003 56.5676C21.2633 56.6013 21.3003 56.6051 21.3003 56.6088C21.056 56.9576 20.882 57.2463 20.7339 57.4901C20.7561 57.4301 20.6895 57.5426 20.6858 57.5088C20.6786 57.5278 20.6686 57.5455 20.6562 57.5613C20.6562 57.5613 20.7043 57.4976 20.708 57.5201C20.6488 57.5951 20.6265 57.6363 20.5821 57.6551C20.5377 57.6738 20.6636 57.5763 20.6302 57.5651C20.9634 57.0626 21.1522 56.7888 21.5335 56.2188C21.5668 56.1776 21.5335 56.1813 21.552 56.1626C21.5705 56.1438 21.6038 56.0838 21.6149 56.0838C21.626 56.0838 21.6446 56.0276 21.6149 56.0238C21.6549 55.9771 21.6908 55.9269 21.7223 55.8738Z" fill="#010101"/>
<path fill-rule="evenodd" clip-rule="evenodd" d="M20.4786 56.9726C20.4786 56.9726 20.4342 57.0551 20.4268 57.0813L20.4675 57.0364C20.3899 57.1901 20.2995 57.3369 20.1973 57.4751C20.1973 57.4113 19.9456 57.7826 19.9493 57.8313C19.953 57.8801 19.9123 57.8576 19.8901 57.8876C19.8678 57.9176 19.8678 57.9626 19.8382 58.0188V57.9926C19.7975 58.0676 19.7457 58.0826 19.6976 58.1388C19.6494 58.1951 19.6568 58.2139 19.6272 58.2551C19.6642 58.1801 19.6013 58.2551 19.5569 58.3301C19.5922 58.2443 19.6343 58.1615 19.6827 58.0826C19.6827 58.0826 19.6827 58.1163 19.6827 58.1238C19.743 58.062 19.7952 57.9927 19.8382 57.9176C19.8567 57.9176 19.8678 57.9176 19.8604 57.9176C19.8604 57.8576 19.9974 57.7188 19.99 57.6701C20.0216 57.6366 20.0501 57.6002 20.0751 57.5613C20.0751 57.5913 20.0418 57.6101 20.0122 57.6588C20.0097 57.6725 20.0097 57.6865 20.0122 57.7001C20.1159 57.5201 20.3306 57.2126 20.4786 56.9726Z" fill="#010101"/>
<path fill-rule="evenodd" clip-rule="evenodd" d="M20.2082 57.0401C20.2379 57.0176 20.2971 56.9201 20.3267 56.9051C20.2786 56.9726 20.2082 57.0588 20.186 57.1001C20.1638 57.1413 20.2045 57.0551 20.2082 57.0401Z" fill="#010101"/>
<path fill-rule="evenodd" clip-rule="evenodd" d="M20.2305 57.7676C20.2861 57.6701 20.3231 57.6214 20.3823 57.5164C20.3823 57.5164 20.3823 57.5426 20.3601 57.5726C20.3379 57.6026 20.3601 57.5726 20.3823 57.5726C20.319 57.6492 20.2655 57.7336 20.2231 57.8239C20.2343 57.7864 20.3009 57.6626 20.2305 57.7676Z" fill="#010101"/>
<path fill-rule="evenodd" clip-rule="evenodd" d="M33.3498 38.6726C33.3498 38.7176 33.2869 38.7926 33.2758 38.8376C33.2647 38.8826 33.2425 38.8676 33.2313 38.8564C33.2202 38.8451 33.2313 38.8939 33.2054 38.8864C33.2054 38.9426 33.1499 38.9764 33.1203 39.0439C33.0757 39.0748 33.0389 39.1159 33.0129 39.1639C33.0796 39.0401 33.1721 38.9351 33.2054 38.8639C33.2365 38.838 33.2651 38.8091 33.2906 38.7776C33.3079 38.7272 33.3315 38.6793 33.3609 38.6351C33.3609 38.6351 33.3609 38.6351 33.3979 38.6089C33.435 38.5826 33.3979 38.6314 33.3979 38.6351C33.383 38.6491 33.3669 38.6616 33.3498 38.6726Z" fill="#010101"/>
<path fill-rule="evenodd" clip-rule="evenodd" d="M30.6697 42.0888C30.6697 42.1188 30.6697 42.1226 30.6364 42.1638C30.6364 42.1413 30.5734 42.2238 30.5327 42.2838C30.5105 42.2838 30.5956 42.1788 30.6216 42.1301C30.6475 42.0813 30.6438 42.1376 30.6697 42.0888Z" fill="#010101"/>
<path fill-rule="evenodd" clip-rule="evenodd" d="M20.3787 58.1839C20.3787 58.1839 20.412 58.1239 20.3787 58.1201C20.3454 58.1164 20.4675 58.0039 20.486 58.0226C20.5378 57.9326 20.5638 57.8614 20.5156 57.8576C20.6081 57.6754 20.7337 57.5126 20.8858 57.3776C20.9747 57.3551 20.9673 57.4489 20.8858 57.5876C20.7637 57.7901 20.5638 57.9626 20.486 58.1314C20.4453 58.1839 20.3342 58.3489 20.2676 58.4164C20.2676 58.3901 20.2676 58.4164 20.2417 58.4164C20.2787 58.3489 20.3602 58.2476 20.3342 58.2401C20.3438 58.2176 20.3591 58.1982 20.3787 58.1839Z" fill="#010101"/>
</g>
</g>
<path d="M44.4742 20.3501L41.9644 17.3501L41.5535 21.1301L42.0865 23.0689L44.4742 20.3501Z" fill="#D99971"/>
<path d="M42.0866 23.0689L40.8242 24.5089L41.8792 25.6376L42.0866 23.0689Z" fill="#F6CA61"/>
<path d="M41.9384 16.6226C41.9384 16.6226 40.8796 11.9014 38.3476 10.8251L36.6965 10.6976L36.7965 10.8476C38.7782 12.2261 40.1389 14.345 40.5798 16.7389L40.6723 16.8814L41.9384 16.6226Z" fill="#EA5F32"/>
<path d="M33.8536 17.3501C33.8536 17.3501 31.7658 12.3401 29.2448 11.2489L27.5457 11.6951C30.3591 13.5701 32.3174 16.4126 32.5098 17.4551L32.5765 17.6239L33.8536 17.3501Z" fill="#EA5F32"/>
<path d="M51.6483 26.8151C51.6236 26.8154 51.5998 26.806 51.5817 26.7889L44.4815 20.5001L40.9685 24.5051L42.1197 25.7389C42.1399 25.7593 42.1512 25.7869 42.1512 25.8157C42.1512 25.8446 42.1399 25.8722 42.1197 25.8926C42.0992 25.9121 42.072 25.923 42.0438 25.923C42.0157 25.923 41.9885 25.9121 41.968 25.8926L40.7501 24.5876C40.7328 24.5672 40.7234 24.5413 40.7234 24.5145C40.7234 24.4877 40.7328 24.4617 40.7501 24.4414L44.4001 20.2826C44.4097 20.2726 44.4213 20.2647 44.434 20.2593C44.4467 20.2539 44.4603 20.2511 44.4741 20.2511C44.4879 20.2511 44.5016 20.2539 44.5143 20.2593C44.527 20.2647 44.5385 20.2726 44.5482 20.2826L51.7261 26.6576C51.7359 26.6674 51.7437 26.6791 51.7491 26.6919C51.7544 26.7048 51.7572 26.7186 51.7572 26.7326C51.7572 26.7466 51.7544 26.7604 51.7491 26.7733C51.7437 26.7862 51.7359 26.7978 51.7261 26.8076C51.7021 26.8203 51.6742 26.823 51.6483 26.8151Z" fill="#010101"/>
<path d="M26.187 20.5676L28.2304 19.3114C28.2304 19.3114 30.2628 15.8539 32.5172 15.9701C34.7716 16.0864 33.6537 16.8289 33.6537 16.8289C33.6537 16.8289 33.0614 20.7964 32.0841 21.5576C31.7583 21.8164 29.9333 21.6064 29.241 21.9326C28.7672 22.2707 28.3326 22.6619 27.9454 23.0989L26.187 20.5676Z" fill="#D99971"/>
<path d="M34.057 16.8214L31.7841 16.6226C31.6932 16.6154 31.6019 16.6272 31.5157 16.6572C31.4296 16.6872 31.3504 16.7347 31.2831 16.7969C31.2158 16.8591 31.1618 16.9347 31.1244 17.0189C31.0871 17.103 31.0672 17.1941 31.0659 17.2864C31.0625 17.3814 31.0775 17.4763 31.1103 17.5654C31.143 17.6546 31.1928 17.7363 31.2567 17.806C31.3207 17.8756 31.3975 17.9318 31.4829 17.9714C31.5684 18.0109 31.6606 18.033 31.7545 18.0364L34.0311 18.0664C34.1118 18.0665 34.1916 18.0499 34.2657 18.0177C34.3399 17.9855 34.4067 17.9382 34.4622 17.8789C34.5176 17.8195 34.5605 17.7493 34.5883 17.6726C34.616 17.5959 34.6279 17.5142 34.6234 17.4326C34.6164 17.2791 34.5555 17.1331 34.4516 17.0211C34.3478 16.909 34.2078 16.8382 34.057 16.8214Z" fill="#D99971"/>
<path d="M34.1794 19.4126L31.4659 19.3376C31.3178 19.3292 31.1767 19.2707 31.0653 19.1715C30.9538 19.0722 30.8785 18.9379 30.8514 18.7901V18.7264C30.8289 18.6324 30.8279 18.5344 30.8483 18.4399C30.8688 18.3455 30.9101 18.2569 30.9694 18.181C31.0286 18.1052 31.104 18.0439 31.1901 18.002C31.2761 17.96 31.3704 17.9384 31.4659 17.9389L34.2053 18.0776C34.3679 18.0969 34.518 18.1758 34.6271 18.2995C34.7363 18.4231 34.7969 18.583 34.7976 18.7489C34.8021 18.8341 34.7895 18.9193 34.7605 18.9995C34.7315 19.0796 34.6867 19.1529 34.6289 19.215C34.5711 19.277 34.5015 19.3266 34.4242 19.3606C34.3469 19.3945 34.2636 19.4122 34.1794 19.4126Z" fill="#D99971"/>
<path d="M34.2978 19.9226C34.2875 19.7833 34.2279 19.6523 34.13 19.5539C34.0321 19.4554 33.9024 19.3959 33.7648 19.3864L31.9508 19.2664C31.8092 19.2578 31.6693 19.3024 31.558 19.3916C31.4467 19.4809 31.3718 19.6085 31.3474 19.7501L31.3215 19.8964C31.3068 19.9807 31.3106 20.0673 31.3328 20.15C31.3549 20.2327 31.3949 20.3094 31.4497 20.3746C31.5045 20.4398 31.5729 20.4919 31.6499 20.5272C31.727 20.5626 31.8108 20.5802 31.8953 20.5789L33.7462 20.5526C33.8241 20.5504 33.9007 20.532 33.9713 20.4987C34.0419 20.4653 34.1049 20.4176 34.1566 20.3586C34.2083 20.2995 34.2475 20.2304 34.2718 20.1554C34.2961 20.0804 34.3049 20.0012 34.2978 19.9226Z" fill="#D99971"/>
<path d="M33.7278 20.9539C33.7059 20.849 33.6512 20.7541 33.5718 20.6832C33.4925 20.6122 33.3927 20.5691 33.2872 20.5601L31.8065 20.4926C31.7472 20.4915 31.6884 20.5028 31.6337 20.5258C31.5789 20.5488 31.5295 20.5831 31.4884 20.6264C31.4474 20.6697 31.4157 20.7212 31.3952 20.7776C31.3748 20.8339 31.3661 20.894 31.3697 20.9539V21.1226C31.3677 21.1907 31.3793 21.2584 31.4037 21.3219C31.4282 21.3853 31.465 21.443 31.512 21.4917C31.559 21.5404 31.6152 21.5789 31.6773 21.6051C31.7393 21.6312 31.8059 21.6444 31.8731 21.6439L33.3539 21.5426C33.4195 21.5348 33.4825 21.5123 33.5385 21.4768C33.5945 21.4414 33.6421 21.3938 33.6778 21.3375C33.7136 21.2813 33.7366 21.2177 33.7452 21.1514C33.7538 21.085 33.7479 21.0176 33.7278 20.9539Z" fill="#D99971"/>
<path d="M38.603 10.4501V12.4826L37.0557 11.0314L36.5337 10.6789L38.603 10.4501Z" fill="#F6CA61"/>
<path d="M33.5279 58.9301C33.5012 58.9303 33.4755 58.9204 33.4556 58.9024C33.4358 58.8843 33.4233 58.8595 33.4205 58.8326L31.5696 43.4576C31.5608 43.4334 31.5608 43.4068 31.5696 43.3826L32.9689 41.3689C32.9866 41.3498 33.0105 41.3377 33.0362 41.335C33.0619 41.3324 33.0877 41.3392 33.1089 41.3542C33.1301 41.3693 33.1452 41.3916 33.1514 41.417C33.1577 41.4424 33.1546 41.4693 33.1429 41.4926L31.7917 43.4989L33.6426 58.8289C33.6458 58.8572 33.6378 58.8856 33.6205 58.908C33.6032 58.9305 33.5779 58.9451 33.5501 58.9489L33.5279 58.9301Z" fill="white"/>
<path d="M40.2022 16.5514L42.5085 16.4876C42.6001 16.486 42.6911 16.5034 42.7759 16.5386C42.8607 16.5739 42.9375 16.6263 43.0016 16.6926C43.0657 16.7589 43.1157 16.8378 43.1487 16.9245C43.1817 17.0111 43.1969 17.1036 43.1933 17.1964C43.1933 17.3953 43.1153 17.586 42.9765 17.7267C42.8376 17.8674 42.6493 17.9464 42.4529 17.9464L40.1578 17.8376C40.0766 17.8326 39.9972 17.8108 39.9246 17.7737C39.8519 17.7366 39.7875 17.6849 39.7352 17.6217C39.6829 17.5586 39.6439 17.4853 39.6204 17.4064C39.597 17.3274 39.5896 17.2445 39.5988 17.1626C39.6069 17.0031 39.673 16.8524 39.7845 16.7394C39.8959 16.6265 40.0448 16.5595 40.2022 16.5514Z" fill="#D99971"/>
<path d="M39.9393 19.1539L42.6898 19.2401C42.8396 19.2411 42.9854 19.191 43.1036 19.0978C43.2218 19.0046 43.3056 18.8737 43.3414 18.7264V18.6626C43.3706 18.5687 43.3779 18.4692 43.3628 18.3719C43.3476 18.2746 43.3105 18.1822 43.2541 18.1019C43.1978 18.0216 43.1239 17.9556 43.0382 17.9091C42.9525 17.8626 42.8573 17.8368 42.7602 17.8339L39.9912 17.8076C39.8258 17.8107 39.6674 17.8755 39.5465 17.9898C39.4255 18.104 39.3505 18.2595 39.3359 18.4264C39.3234 18.5151 39.3295 18.6056 39.3538 18.6918C39.3781 18.778 39.4201 18.8581 39.4771 18.9268C39.534 18.9954 39.6046 19.0511 39.6843 19.0903C39.7639 19.1294 39.8509 19.1511 39.9393 19.1539Z" fill="#D99971"/>
<path d="M39.9431 19.6676C39.9626 19.5281 40.0308 19.4003 40.1354 19.3074C40.24 19.2145 40.3741 19.1627 40.5132 19.1614H42.3641C42.5053 19.1602 42.642 19.2114 42.7484 19.3054C42.8548 19.3994 42.9235 19.5295 42.9416 19.6714L42.9601 19.8214C42.9702 19.9073 42.9614 19.9943 42.9343 20.0764C42.9072 20.1584 42.8625 20.2333 42.8033 20.2957C42.7442 20.3581 42.6721 20.4065 42.5924 20.4373C42.5126 20.4681 42.427 20.4806 42.3419 20.4739L40.491 20.3351C40.4103 20.3317 40.3312 20.3113 40.2588 20.275C40.1864 20.2388 40.1223 20.1875 40.0707 20.1246C40.0191 20.0617 39.981 19.9885 39.9591 19.9098C39.9371 19.8311 39.9316 19.7486 39.9431 19.6676Z" fill="#D99971"/>
<path d="M40.2984 20.7326C40.3276 20.6271 40.3893 20.5338 40.4745 20.4663C40.5598 20.3989 40.6641 20.3608 40.7722 20.3576L42.2826 20.3801C42.3424 20.3822 42.4011 20.397 42.455 20.4234C42.5089 20.4499 42.5567 20.4874 42.5954 20.5337C42.634 20.5799 42.6628 20.6339 42.6797 20.692C42.6966 20.7502 42.7013 20.8113 42.6935 20.8714V21.0439C42.6912 21.1122 42.6753 21.1794 42.6469 21.2413C42.6184 21.3033 42.5779 21.3589 42.5279 21.4047C42.4778 21.4505 42.4191 21.4857 42.3554 21.5081C42.2916 21.5305 42.2241 21.5397 42.1567 21.5351L40.6538 21.3439C40.5875 21.3336 40.5243 21.3086 40.4688 21.2705C40.4132 21.2324 40.3668 21.1823 40.3327 21.1238C40.2987 21.0653 40.278 20.9998 40.272 20.9321C40.2661 20.8645 40.2751 20.7963 40.2984 20.7326Z" fill="#D99971"/>
<path d="M33.3722 2.27137L31.0401 1.49887C31.0129 1.48757 30.9897 1.46834 30.9733 1.44363C30.957 1.41893 30.9482 1.38986 30.9482 1.36012C30.9482 1.33037 30.957 1.3013 30.9733 1.2766C30.9897 1.25189 31.0129 1.23267 31.0401 1.22137C31.6249 0.955116 32.854 0.471366 33.6054 0.786366C34.2573 1.05002 34.9296 1.25823 35.6156 1.40887L33.3722 2.27137Z" fill="#364678"/>
<path d="M37.0557 11.0276L36.7855 10.8401L38.6364 5.99511L35.9081 5.86386L33.687 11.1364C33.687 11.1364 33.9609 12.7976 36.2783 12.7151C37.859 12.6589 37.0557 11.0276 37.0557 11.0276Z" fill="#D99971"/>
<path d="M33.3167 2.72137C33.3167 2.72137 31.8841 3.05512 31.6509 3.84637C31.4177 4.63762 32.6615 4.65637 33.1317 4.04137C33.2609 3.8507 33.3448 3.63234 33.3769 3.40335C33.409 3.17437 33.3884 2.94096 33.3167 2.72137Z" fill="#010101"/>
<path d="M35.249 7.42014L34.4531 9.29514C35.9894 9.43764 37.8996 7.49889 38.1772 7.21014V7.17264L35.249 7.42014Z" fill="#010101"/>
<path d="M33.6868 2.05761C33.6868 2.05761 32.9872 3.23136 32.443 3.01761C31.5249 2.64261 32.3949 1.85136 32.7354 1.83261L33.6868 2.05761Z" fill="#010101"/>
<path d="M38.999 5.62389C38.9558 5.86773 38.8811 6.10476 38.7769 6.32889C38.533 6.84714 38.1707 7.29909 37.7201 7.64732C37.2695 7.99555 36.7435 8.23004 36.1856 8.33139C33.6461 8.91264 32.5208 6.39264 32.5208 4.99764C32.5208 3.52764 32.7984 1.20264 35.2305 1.20264C37.3961 1.20264 39.5617 3.66264 39.3026 4.57764C39.0434 5.49264 38.999 5.62389 38.999 5.62389Z" fill="#D99971"/>
<path d="M35.6008 5.00136C35.6008 5.00136 35.649 3.93636 36.5892 3.70386C36.785 3.66616 36.9866 3.6739 37.179 3.72651C37.3713 3.77912 37.5494 3.87523 37.6998 4.00761C37.7288 4.13836 37.732 4.27361 37.7094 4.40564C37.6867 4.53766 37.6386 4.66387 37.5678 4.77705C37.497 4.89023 37.4048 4.98817 37.2966 5.06526C37.1884 5.14236 37.0663 5.1971 36.9372 5.22636C36.4798 5.3294 36.0007 5.24875 35.6008 5.00136Z" fill="white"/>
<path d="M34.1609 4.95638C34.1609 4.95638 34.1239 3.96263 33.4205 3.74513C33.2675 3.7125 33.1087 3.7217 32.9604 3.77178C32.812 3.82187 32.6795 3.91103 32.5765 4.03013C32.5765 4.03013 32.4099 4.91138 33.154 5.15513C33.3257 5.20112 33.5055 5.20713 33.6799 5.17271C33.8543 5.13829 34.0187 5.06433 34.1609 4.95638Z" fill="white"/>
<path d="M34.2088 5.89013C34.192 5.89047 34.1754 5.88653 34.1606 5.87866C34.1457 5.8708 34.133 5.85927 34.1237 5.84513L33.6868 5.27138C33.6799 5.25609 33.6763 5.23946 33.6763 5.22263C33.6763 5.20579 33.6799 5.18916 33.6868 5.17388C33.6923 5.15728 33.7015 5.1422 33.7137 5.12983C33.7259 5.11746 33.7408 5.10815 33.7572 5.10263L34.3865 4.87388C34.4135 4.86565 34.4426 4.8685 34.4675 4.88184C34.4925 4.89517 34.5112 4.9179 34.5198 4.94513C34.5244 4.95841 34.5263 4.9725 34.5254 4.98655C34.5246 5.00061 34.5209 5.01434 34.5147 5.02694C34.5085 5.03953 34.4998 5.05073 34.4893 5.05987C34.4787 5.06901 34.4664 5.0759 34.4531 5.08013L33.9608 5.24888L34.294 5.70638C34.3103 5.72939 34.3171 5.75793 34.3129 5.78595C34.3088 5.81396 34.294 5.83923 34.2717 5.85638C34.2556 5.87507 34.2332 5.88708 34.2088 5.89013Z" fill="#010101"/>
<path d="M34.7197 6.98137H34.6197C34.5951 6.97669 34.5729 6.96344 34.5569 6.94393C34.541 6.92441 34.5322 6.89985 34.5322 6.8745C34.5322 6.84915 34.541 6.82459 34.5569 6.80507C34.5729 6.78556 34.5951 6.77231 34.6197 6.76762C35.0308 6.75529 35.4242 6.59586 35.7303 6.31762C35.7397 6.30716 35.7511 6.2988 35.7638 6.29307C35.7766 6.28735 35.7904 6.28439 35.8043 6.28439C35.8183 6.28439 35.8321 6.28735 35.8448 6.29307C35.8576 6.2988 35.869 6.30716 35.8784 6.31762C35.8976 6.33847 35.9083 6.36595 35.9083 6.3945C35.9083 6.42305 35.8976 6.45053 35.8784 6.47137C35.5556 6.76197 35.1496 6.94064 34.7197 6.98137Z" fill="#010101"/>
<path d="M37.2259 3.21262C37.203 3.21265 37.1807 3.20471 37.1629 3.19012C36.9736 3.05756 36.7489 2.98655 36.5188 2.98655C36.2887 2.98655 36.064 3.05756 35.8747 3.19012C35.8632 3.19843 35.8501 3.20427 35.8362 3.20726C35.8224 3.21026 35.8081 3.21035 35.7942 3.20754C35.7804 3.20473 35.7672 3.19908 35.7556 3.19092C35.744 3.18277 35.7341 3.17229 35.7266 3.16012C35.7163 3.14845 35.7087 3.13459 35.7044 3.11955C35.7 3.10452 35.6991 3.08869 35.7015 3.07323C35.704 3.05777 35.7099 3.04306 35.7187 3.0302C35.7275 3.01733 35.7391 3.00663 35.7525 2.99887C35.9793 2.84151 36.2477 2.75729 36.5225 2.75729C36.7974 2.75729 37.0658 2.84151 37.2925 2.99887C37.3142 3.01656 37.3282 3.0421 37.3317 3.07008C37.3351 3.09807 37.3277 3.12632 37.311 3.14887C37.3038 3.16627 37.2921 3.18137 37.2771 3.19259C37.2621 3.20381 37.2444 3.21073 37.2259 3.21262Z" fill="#010101"/>
<path d="M33.9756 3.37386C33.9551 3.38072 33.9331 3.38072 33.9126 3.37386C33.7233 3.2413 33.4987 3.17029 33.2685 3.17029C33.0384 3.17029 32.8137 3.2413 32.6244 3.37386C32.6013 3.38576 32.5748 3.38884 32.5497 3.38252C32.5246 3.37621 32.5026 3.36092 32.4878 3.33947C32.4729 3.31803 32.4662 3.29187 32.4688 3.2658C32.4715 3.23974 32.4834 3.21552 32.5022 3.19761C32.7297 3.03631 33.0002 2.94885 33.2779 2.94684C33.5556 2.94483 33.8273 3.02836 34.057 3.18636C34.0749 3.20026 34.088 3.21951 34.0945 3.24138C34.1009 3.26324 34.1005 3.28662 34.0931 3.30819C34.0857 3.32976 34.0718 3.34844 34.0534 3.36157C34.035 3.3747 34.0129 3.38163 33.9904 3.38136L33.9756 3.37386Z" fill="#010101"/>
<path d="M37.8071 2.51138L38.5401 5.09138L39.2027 4.12763L38.0181 2.62763L37.8071 2.51138Z" fill="#010101"/>
<path d="M33.5945 1.67137C33.5945 1.67137 35.9859 -0.694875 38.455 0.966375C40.4133 2.28262 40.3541 5.20762 39.2176 5.93887C39.1426 4.8742 38.7477 3.85829 38.0859 3.02768C37.4242 2.19708 36.5273 1.5916 35.5157 1.29262C35.1909 1.1791 34.8422 1.15434 34.5049 1.22083C34.1676 1.28733 33.8536 1.44273 33.5945 1.67137Z" fill="#94A1B1"/>
<path d="M36.356 2.06511C36.356 2.06511 35.8562 2.88636 35.2454 2.81511C34.6346 2.74386 34.9678 1.99761 34.9678 1.99761C34.6809 2.18633 34.3516 2.29838 34.0104 2.3233C33.6693 2.34822 33.3275 2.2852 33.0169 2.14011C31.9915 1.61511 33.9757 1.12386 33.9757 1.12386L34.5568 0.865112L36.356 2.06511Z" fill="#010101"/>
<path d="M38.3143 2.86762C37.5625 2.53228 36.7712 2.29659 35.9599 2.16637C35.8067 2.15258 35.6634 2.08336 35.5564 1.97137C35.1961 1.58174 34.7634 1.26791 34.2832 1.04784C33.803 0.827776 33.2846 0.705791 32.7578 0.688869C32.7578 0.688869 35.7045 0.223869 38.3143 2.86762Z" fill="#94A1B1"/>
<path d="M38.6511 4.99388C38.6511 4.99388 38.9103 3.82013 39.8986 4.09763C40.887 4.37513 40.5909 6.10013 39.8505 6.32513C39.6445 6.39249 39.4243 6.40227 39.2132 6.35343C39.0021 6.30459 38.8079 6.19894 38.6511 6.04763V4.99388Z" fill="#D99971"/>
<mask id="mask1_1238_345" style="mask-type:luminance" maskUnits="userSpaceOnUse" x="35" y="3" width="3" height="3">
<path d="M35.6008 5.00136C35.6008 5.00136 35.649 3.93636 36.5892 3.70386C36.785 3.66616 36.9866 3.6739 37.179 3.72651C37.3713 3.77912 37.5494 3.87523 37.6998 4.00761C37.7288 4.13836 37.732 4.27361 37.7094 4.40564C37.6867 4.53766 37.6386 4.66387 37.5678 4.77705C37.497 4.89023 37.4048 4.98817 37.2966 5.06526C37.1884 5.14236 37.0663 5.1971 36.9372 5.22636C36.4798 5.3294 36.0007 5.24875 35.6008 5.00136Z" fill="white"/>
</mask>
<g mask="url(#mask1_1238_345)">
<path d="M36.2375 5.4401C36.7629 5.4401 37.1889 5.00862 37.1889 4.47635C37.1889 3.94409 36.7629 3.5126 36.2375 3.5126C35.7121 3.5126 35.2861 3.94409 35.2861 4.47635C35.2861 5.00862 35.7121 5.4401 36.2375 5.4401Z" fill="#010101"/>
</g>
<mask id="mask2_1238_345" style="mask-type:luminance" maskUnits="userSpaceOnUse" x="32" y="3" width="3" height="3">
<path d="M34.1609 4.95638C34.1609 4.95638 34.1239 3.96263 33.4205 3.74513C33.2675 3.7125 33.1087 3.7217 32.9604 3.77178C32.812 3.82187 32.6795 3.91103 32.5765 4.03013C32.5765 4.03013 32.4099 4.91138 33.154 5.15513C33.3257 5.20112 33.5055 5.20713 33.6799 5.17271C33.8543 5.13829 34.0187 5.06433 34.1609 4.95638Z" fill="white"/>
</mask>
<g mask="url(#mask2_1238_345)">
<path d="M33.0393 5.37263C33.4911 5.37263 33.8574 4.94114 33.8574 4.40888C33.8574 3.87661 33.4911 3.44513 33.0393 3.44513C32.5875 3.44513 32.2212 3.87661 32.2212 4.40888C32.2212 4.94114 32.5875 5.37263 33.0393 5.37263Z" fill="#010101"/>
</g>
<path d="M18.3131 33.9364C18.2991 33.9363 18.2853 33.9333 18.2726 33.9275C18.2598 33.9216 18.2484 33.9132 18.2391 33.9026C18.219 33.8822 18.2077 33.8546 18.2077 33.8257C18.2077 33.7969 18.219 33.7693 18.2391 33.7489L28.4118 23.9764L25.9612 20.4289L16.4178 27.4151C16.3948 27.4308 16.3668 27.4371 16.3394 27.4329C16.312 27.4288 16.2872 27.4144 16.2697 27.3926C16.2536 27.3686 16.2472 27.3391 16.2521 27.3105C16.2569 27.2818 16.2725 27.2561 16.2956 27.2389L25.9204 20.1889C25.9447 20.1734 25.9734 20.1668 26.0019 20.1701C26.0298 20.1763 26.0547 20.1922 26.0722 20.2151L28.6339 23.9314C28.6506 23.9505 28.6598 23.9752 28.6598 24.0007C28.6598 24.0263 28.6506 24.0509 28.6339 24.0701L18.3872 33.9064C18.3774 33.9161 18.3658 33.9237 18.3531 33.9289C18.3404 33.934 18.3268 33.9366 18.3131 33.9364Z" fill="#010101"/>
<path d="M33.9534 12.2201H33.9127C33.8794 12.2201 30.7624 10.8176 27.6455 11.7251C27.618 11.7331 27.5885 11.7296 27.5635 11.7156C27.5385 11.7015 27.5201 11.678 27.5122 11.6501C27.5043 11.6223 27.5077 11.5924 27.5216 11.5671C27.5355 11.5418 27.5588 11.5231 27.5862 11.5151C29.0316 11.1317 30.5458 11.0983 32.0063 11.4176C32.6881 11.5416 33.3555 11.7364 33.9979 11.9989C34.0238 12.0104 34.0442 12.0318 34.0546 12.0585C34.065 12.0852 34.0646 12.115 34.0534 12.1414C34.0462 12.163 34.0329 12.182 34.0151 12.196C33.9973 12.21 33.9759 12.2184 33.9534 12.2201Z" fill="#010101"/>
</svg>
