<svg width="245" height="45" viewBox="0 0 245 45" fill="none" xmlns="http://www.w3.org/2000/svg">
<path d="M24.0649 4.14V5.04L8.67488 34.965H13.3549C14.3749 34.965 15.3949 34.8 16.4149 34.47C17.4649 34.14 18.4249 33.6 19.2949 32.85C20.1949 32.1 20.9599 31.11 21.5899 29.88C22.2199 28.62 22.6399 27.06 22.8499 25.2H23.8849C23.7949 26.22 23.7499 27.54 23.7499 29.16C23.7499 29.85 23.7649 30.825 23.7949 32.085C23.8249 33.345 23.9149 34.65 24.0649 36C22.9549 35.94 21.7399 35.91 20.4199 35.91C19.0999 35.88 17.7799 35.865 16.4599 35.865C15.1699 35.865 13.9699 35.865 12.8599 35.865C10.9099 35.865 8.86988 35.88 6.73988 35.91C4.60988 35.91 2.61488 35.94 0.754883 36V35.1L16.1899 5.175H11.3299C10.1899 5.175 9.12488 5.325 8.13488 5.625C7.17488 5.925 6.28988 6.435 5.47988 7.155C4.66988 7.845 3.99488 8.79 3.45488 9.99C2.91488 11.16 2.53988 12.63 2.32988 14.4H1.29488C1.35488 13.98 1.38488 13.47 1.38488 12.87C1.41488 12.27 1.42988 11.64 1.42988 10.98C1.42988 10.29 1.39988 9.315 1.33988 8.055C1.30988 6.795 1.23488 5.49 1.11488 4.14C2.10488 4.17 3.19988 4.2 4.39988 4.23C5.59988 4.26 6.78488 4.275 7.95488 4.275C9.15488 4.275 10.2499 4.275 11.2399 4.275C13.2499 4.275 15.3949 4.275 17.6749 4.275C19.9549 4.245 22.0849 4.2 24.0649 4.14Z" fill="#3A3A3A"/>
<path d="M33.3602 36.315C32.0102 36.315 30.8852 36.06 29.9852 35.55C29.0852 35.04 28.4252 34.365 28.0052 33.525C27.5852 32.655 27.3752 31.71 27.3752 30.69C27.3752 29.4 27.6602 28.35 28.2302 27.54C28.8302 26.73 29.5952 26.07 30.5252 25.56C31.4552 25.05 32.4302 24.63 33.4502 24.3C34.5002 23.97 35.4902 23.655 36.4202 23.355C37.3802 23.025 38.1452 22.65 38.7152 22.23C39.3152 21.78 39.6152 21.21 39.6152 20.52V17.01C39.6152 16.23 39.4802 15.54 39.2102 14.94C38.9702 14.31 38.5802 13.83 38.0402 13.5C37.5302 13.17 36.8552 13.005 36.0152 13.005C35.4152 13.005 34.8152 13.095 34.2152 13.275C33.6152 13.425 33.1202 13.695 32.7302 14.085C33.5702 14.385 34.2152 14.85 34.6652 15.48C35.1452 16.08 35.3852 16.77 35.3852 17.55C35.3852 18.57 35.0252 19.38 34.3052 19.98C33.6152 20.58 32.7902 20.88 31.8302 20.88C30.7502 20.88 29.9252 20.55 29.3552 19.89C28.8152 19.2 28.5452 18.375 28.5452 17.415C28.5452 16.545 28.7552 15.825 29.1752 15.255C29.6252 14.685 30.2402 14.145 31.0202 13.635C31.8602 13.155 32.8652 12.78 34.0352 12.51C35.2352 12.24 36.5252 12.105 37.9052 12.105C39.2852 12.105 40.5302 12.255 41.6402 12.555C42.7502 12.825 43.6802 13.335 44.4302 14.085C45.1202 14.775 45.5702 15.63 45.7802 16.65C45.9902 17.64 46.0952 18.9 46.0952 20.43V32.67C46.0952 33.42 46.1702 33.945 46.3202 34.245C46.4702 34.515 46.7252 34.65 47.0852 34.65C47.3552 34.65 47.6102 34.575 47.8502 34.425C48.1202 34.275 48.4052 34.095 48.7052 33.885L49.1552 34.65C48.5252 35.19 47.7902 35.61 46.9502 35.91C46.1402 36.18 45.2252 36.315 44.2052 36.315C43.0952 36.315 42.2102 36.165 41.5502 35.865C40.8902 35.535 40.4102 35.1 40.1102 34.56C39.8402 34.02 39.7052 33.39 39.7052 32.67C38.9852 33.81 38.1152 34.71 37.0952 35.37C36.0752 36 34.8302 36.315 33.3602 36.315ZM36.5552 33.435C37.1552 33.435 37.6952 33.3 38.1752 33.03C38.6852 32.73 39.1652 32.25 39.6152 31.59V22.365C39.3452 22.815 38.9702 23.22 38.4902 23.58C38.0102 23.94 37.5002 24.315 36.9602 24.705C36.4202 25.065 35.8952 25.47 35.3852 25.92C34.9052 26.37 34.5152 26.925 34.2152 27.585C33.9152 28.245 33.7652 29.04 33.7652 29.97C33.7652 31.14 34.0202 32.01 34.5302 32.58C35.0402 33.15 35.7152 33.435 36.5552 33.435Z" fill="#3A3A3A"/>
<path d="M65.9212 12.105C66.8812 12.105 67.6612 12.315 68.2612 12.735C68.8612 13.125 69.2962 13.635 69.5662 14.265C69.8662 14.895 70.0162 15.555 70.0162 16.245C70.0162 17.355 69.6862 18.27 69.0262 18.99C68.3962 19.68 67.5562 20.025 66.5062 20.025C65.4562 20.025 64.6312 19.77 64.0312 19.26C63.4612 18.72 63.1762 18.015 63.1762 17.145C63.1762 16.305 63.3562 15.615 63.7162 15.075C64.1062 14.505 64.5862 14.025 65.1562 13.635C64.7362 13.515 64.3162 13.53 63.8962 13.68C63.3262 13.77 62.7862 14.01 62.2762 14.4C61.7662 14.76 61.3312 15.225 60.9712 15.795C60.6112 16.335 60.3262 16.935 60.1162 17.595C59.9062 18.225 59.8012 18.84 59.8012 19.44V31.365C59.8012 32.805 60.1462 33.78 60.8362 34.29C61.5562 34.8 62.6212 35.055 64.0312 35.055V36C63.3412 35.97 62.3362 35.94 61.0162 35.91C59.6962 35.85 58.3162 35.82 56.8762 35.82C55.6762 35.82 54.4612 35.85 53.2312 35.91C52.0012 35.94 51.0712 35.97 50.4412 36V35.055C51.4912 35.055 52.2262 34.83 52.6462 34.38C53.0962 33.93 53.3212 33.075 53.3212 31.815V17.64C53.3212 16.29 53.1112 15.3 52.6912 14.67C52.3012 14.01 51.5512 13.68 50.4412 13.68V12.735C51.4012 12.825 52.3312 12.87 53.2312 12.87C54.4912 12.87 55.6612 12.825 56.7412 12.735C57.8512 12.615 58.8712 12.45 59.8012 12.24V16.425C60.1612 15.615 60.6412 14.88 61.2412 14.22C61.8412 13.56 62.5312 13.05 63.3112 12.69C64.0912 12.3 64.9612 12.105 65.9212 12.105Z" fill="#3A3A3A"/>
<path d="M77.6571 36.315C76.3071 36.315 75.1821 36.06 74.2821 35.55C73.3821 35.04 72.7221 34.365 72.3021 33.525C71.8821 32.655 71.6721 31.71 71.6721 30.69C71.6721 29.4 71.9571 28.35 72.5271 27.54C73.1271 26.73 73.8921 26.07 74.8221 25.56C75.7521 25.05 76.7271 24.63 77.7471 24.3C78.7971 23.97 79.7871 23.655 80.7171 23.355C81.6771 23.025 82.4421 22.65 83.0121 22.23C83.6121 21.78 83.9121 21.21 83.9121 20.52V17.01C83.9121 16.23 83.7771 15.54 83.5071 14.94C83.2671 14.31 82.8771 13.83 82.3371 13.5C81.8271 13.17 81.1521 13.005 80.3121 13.005C79.7121 13.005 79.1121 13.095 78.5121 13.275C77.9121 13.425 77.4171 13.695 77.0271 14.085C77.8671 14.385 78.5121 14.85 78.9621 15.48C79.4421 16.08 79.6821 16.77 79.6821 17.55C79.6821 18.57 79.3221 19.38 78.6021 19.98C77.9121 20.58 77.0871 20.88 76.1271 20.88C75.0471 20.88 74.2221 20.55 73.6521 19.89C73.1121 19.2 72.8421 18.375 72.8421 17.415C72.8421 16.545 73.0521 15.825 73.4721 15.255C73.9221 14.685 74.5371 14.145 75.3171 13.635C76.1571 13.155 77.1621 12.78 78.3321 12.51C79.5321 12.24 80.8221 12.105 82.2021 12.105C83.5821 12.105 84.8271 12.255 85.9371 12.555C87.0471 12.825 87.9771 13.335 88.7271 14.085C89.4171 14.775 89.8671 15.63 90.0771 16.65C90.2871 17.64 90.3921 18.9 90.3921 20.43V32.67C90.3921 33.42 90.4671 33.945 90.6171 34.245C90.7671 34.515 91.0221 34.65 91.3821 34.65C91.6521 34.65 91.9071 34.575 92.1471 34.425C92.4171 34.275 92.7021 34.095 93.0021 33.885L93.4521 34.65C92.8221 35.19 92.0871 35.61 91.2471 35.91C90.4371 36.18 89.5221 36.315 88.5021 36.315C87.3921 36.315 86.5071 36.165 85.8471 35.865C85.1871 35.535 84.7071 35.1 84.4071 34.56C84.1371 34.02 84.0021 33.39 84.0021 32.67C83.2821 33.81 82.4121 34.71 81.3921 35.37C80.3721 36 79.1271 36.315 77.6571 36.315ZM80.8521 33.435C81.4521 33.435 81.9921 33.3 82.4721 33.03C82.9821 32.73 83.4621 32.25 83.9121 31.59V22.365C83.6421 22.815 83.2671 23.22 82.7871 23.58C82.3071 23.94 81.7971 24.315 81.2571 24.705C80.7171 25.065 80.1921 25.47 79.6821 25.92C79.2021 26.37 78.8121 26.925 78.5121 27.585C78.2121 28.245 78.0621 29.04 78.0621 29.97C78.0621 31.14 78.3171 32.01 78.8271 32.58C79.3371 33.15 80.0121 33.435 80.8521 33.435Z" fill="#3A3A3A"/>
<path d="M110.173 12.105C112.513 12.105 114.448 13.065 115.978 14.985C117.538 16.875 118.318 19.8 118.318 23.76C118.318 26.88 117.838 29.385 116.878 31.275C115.948 33.165 114.703 34.53 113.143 35.37C111.583 36.21 109.873 36.63 108.013 36.63C106.783 36.63 105.643 36.42 104.593 36C103.543 35.58 102.643 34.89 101.893 33.93L102.523 33.705C103.063 34.365 103.693 34.86 104.413 35.19C105.163 35.52 105.898 35.685 106.618 35.685C108.268 35.685 109.498 34.755 110.308 32.895C111.118 31.035 111.523 28.2 111.523 24.39C111.523 21.81 111.358 19.77 111.028 18.27C110.728 16.74 110.278 15.66 109.678 15.03C109.078 14.37 108.358 14.04 107.518 14.04C106.468 14.04 105.508 14.475 104.638 15.345C103.768 16.185 103.273 17.37 103.153 18.9L102.928 17.325C103.468 15.615 104.383 14.325 105.673 13.455C106.963 12.555 108.463 12.105 110.173 12.105ZM103.288 0.809998V35.1C102.538 34.98 101.773 34.98 100.993 35.1C100.213 35.22 99.4931 35.43 98.8331 35.73C98.1731 36 97.6181 36.33 97.1681 36.72L96.4931 36.315C96.6131 35.895 96.6881 35.475 96.7181 35.055C96.7781 34.635 96.8081 34.215 96.8081 33.795V6.21C96.8081 4.86 96.5981 3.87 96.1781 3.24C95.7881 2.58 95.0381 2.25 93.9281 2.25V1.305C94.8881 1.395 95.8181 1.44 96.7181 1.44C97.9481 1.44 99.1181 1.395 100.228 1.305C101.338 1.185 102.358 1.02 103.288 0.809998Z" fill="#3A3A3A"/>
<path d="M127.315 36.315C125.965 36.315 124.84 36.06 123.94 35.55C123.04 35.04 122.38 34.365 121.96 33.525C121.54 32.655 121.33 31.71 121.33 30.69C121.33 29.4 121.615 28.35 122.185 27.54C122.785 26.73 123.55 26.07 124.48 25.56C125.41 25.05 126.385 24.63 127.405 24.3C128.455 23.97 129.445 23.655 130.375 23.355C131.335 23.025 132.1 22.65 132.67 22.23C133.27 21.78 133.57 21.21 133.57 20.52V17.01C133.57 16.23 133.435 15.54 133.165 14.94C132.925 14.31 132.535 13.83 131.995 13.5C131.485 13.17 130.81 13.005 129.97 13.005C129.37 13.005 128.77 13.095 128.17 13.275C127.57 13.425 127.075 13.695 126.685 14.085C127.525 14.385 128.17 14.85 128.62 15.48C129.1 16.08 129.34 16.77 129.34 17.55C129.34 18.57 128.98 19.38 128.26 19.98C127.57 20.58 126.745 20.88 125.785 20.88C124.705 20.88 123.88 20.55 123.31 19.89C122.77 19.2 122.5 18.375 122.5 17.415C122.5 16.545 122.71 15.825 123.13 15.255C123.58 14.685 124.195 14.145 124.975 13.635C125.815 13.155 126.82 12.78 127.99 12.51C129.19 12.24 130.48 12.105 131.86 12.105C133.24 12.105 134.485 12.255 135.595 12.555C136.705 12.825 137.635 13.335 138.385 14.085C139.075 14.775 139.525 15.63 139.735 16.65C139.945 17.64 140.05 18.9 140.05 20.43V32.67C140.05 33.42 140.125 33.945 140.275 34.245C140.425 34.515 140.68 34.65 141.04 34.65C141.31 34.65 141.565 34.575 141.805 34.425C142.075 34.275 142.36 34.095 142.66 33.885L143.11 34.65C142.48 35.19 141.745 35.61 140.905 35.91C140.095 36.18 139.18 36.315 138.16 36.315C137.05 36.315 136.165 36.165 135.505 35.865C134.845 35.535 134.365 35.1 134.065 34.56C133.795 34.02 133.66 33.39 133.66 32.67C132.94 33.81 132.07 34.71 131.05 35.37C130.03 36 128.785 36.315 127.315 36.315ZM130.51 33.435C131.11 33.435 131.65 33.3 132.13 33.03C132.64 32.73 133.12 32.25 133.57 31.59V22.365C133.3 22.815 132.925 23.22 132.445 23.58C131.965 23.94 131.455 24.315 130.915 24.705C130.375 25.065 129.85 25.47 129.34 25.92C128.86 26.37 128.47 26.925 128.17 27.585C127.87 28.245 127.72 29.04 127.72 29.97C127.72 31.14 127.975 32.01 128.485 32.58C128.995 33.15 129.67 33.435 130.51 33.435Z" fill="#3A3A3A"/>
<path d="M153.531 5.355V12.735H158.841V13.635H153.531V31.815C153.531 32.715 153.696 33.36 154.026 33.75C154.356 34.11 154.851 34.29 155.511 34.29C156.051 34.29 156.591 34.095 157.131 33.705C157.671 33.285 158.151 32.58 158.571 31.59L159.336 31.995C158.856 33.345 158.121 34.455 157.131 35.325C156.171 36.195 154.851 36.63 153.171 36.63C152.181 36.63 151.311 36.495 150.561 36.225C149.811 35.985 149.181 35.61 148.671 35.1C148.011 34.44 147.576 33.63 147.366 32.67C147.156 31.68 147.051 30.405 147.051 28.845V13.635H143.271V12.735H147.051V6.795C148.311 6.795 149.466 6.69 150.516 6.48C151.596 6.24 152.601 5.865 153.531 5.355Z" fill="#3A3A3A"/>
<path d="M182.222 12.735V13.635C181.652 13.785 181.112 14.145 180.602 14.715C180.092 15.255 179.597 16.185 179.117 17.505L172.772 35.325L171.107 38.475L161.297 16.2C160.787 15.03 160.277 14.325 159.767 14.085C159.287 13.815 158.867 13.68 158.507 13.68V12.735C159.497 12.825 160.517 12.9 161.567 12.96C162.647 12.99 163.682 13.005 164.672 13.005C165.902 13.005 167.027 12.975 168.047 12.915C169.067 12.855 170.027 12.795 170.927 12.735V13.68C170.327 13.68 169.757 13.725 169.217 13.815C168.707 13.875 168.347 14.085 168.137 14.445C167.957 14.775 168.047 15.36 168.407 16.2L174.077 29.88L173.672 30.15L177.002 20.835C177.572 19.215 177.812 17.895 177.722 16.875C177.632 15.825 177.302 15.045 176.732 14.535C176.162 13.995 175.382 13.695 174.392 13.635V12.735C174.872 12.765 175.367 12.795 175.877 12.825C176.387 12.825 176.897 12.84 177.407 12.87C177.917 12.87 178.367 12.87 178.757 12.87C179.357 12.87 179.987 12.855 180.647 12.825C181.307 12.795 181.832 12.765 182.222 12.735ZM172.772 35.325L171.062 40.14C170.762 40.89 170.447 41.52 170.117 42.03C169.817 42.57 169.472 43.005 169.082 43.335C168.662 43.695 168.122 43.965 167.462 44.145C166.802 44.355 166.037 44.46 165.167 44.46C164.447 44.46 163.697 44.34 162.917 44.1C162.167 43.86 161.537 43.47 161.027 42.93C160.517 42.39 160.262 41.7 160.262 40.86C160.262 39.93 160.592 39.18 161.252 38.61C161.912 38.07 162.782 37.8 163.862 37.8C164.852 37.8 165.662 38.04 166.292 38.52C166.922 39 167.237 39.705 167.237 40.635C167.237 41.235 167.042 41.805 166.652 42.345C166.292 42.885 165.737 43.29 164.987 43.56C165.137 43.59 165.317 43.605 165.527 43.605C165.737 43.605 165.902 43.605 166.022 43.605C166.922 43.605 167.717 43.32 168.407 42.75C169.097 42.18 169.667 41.28 170.117 40.05L171.692 35.415L172.772 35.325Z" fill="#3A3A3A"/>
<path d="M205.287 12.735V13.635C204.717 13.785 204.177 14.145 203.667 14.715C203.157 15.255 202.662 16.185 202.182 17.505L195.612 36.09C195.132 36.06 194.637 36.045 194.127 36.045C193.647 36.045 193.167 36.06 192.687 36.09L184.677 16.2C184.197 15.03 183.717 14.325 183.237 14.085C182.787 13.815 182.397 13.68 182.067 13.68V12.735C183.027 12.795 184.017 12.855 185.037 12.915C186.087 12.945 187.227 12.96 188.457 12.96C189.387 12.96 190.362 12.945 191.382 12.915C192.432 12.855 193.407 12.795 194.307 12.735V13.68C193.677 13.68 193.107 13.71 192.597 13.77C192.117 13.83 191.787 14.025 191.607 14.355C191.427 14.685 191.457 15.27 191.697 16.11L196.962 30.06L196.512 30.69L200.067 20.835C200.637 19.215 200.877 17.895 200.787 16.875C200.697 15.825 200.367 15.045 199.797 14.535C199.227 13.995 198.462 13.695 197.502 13.635V12.735C197.952 12.765 198.432 12.795 198.942 12.825C199.482 12.825 199.992 12.84 200.472 12.87C200.982 12.87 201.432 12.87 201.822 12.87C202.422 12.87 203.052 12.855 203.712 12.825C204.372 12.795 204.897 12.765 205.287 12.735Z" fill="#3A3A3A"/>
<path d="M212.086 36.315C210.736 36.315 209.611 36.06 208.711 35.55C207.811 35.04 207.151 34.365 206.731 33.525C206.311 32.655 206.101 31.71 206.101 30.69C206.101 29.4 206.386 28.35 206.956 27.54C207.556 26.73 208.321 26.07 209.251 25.56C210.181 25.05 211.156 24.63 212.176 24.3C213.226 23.97 214.216 23.655 215.146 23.355C216.106 23.025 216.871 22.65 217.441 22.23C218.041 21.78 218.341 21.21 218.341 20.52V17.01C218.341 16.23 218.206 15.54 217.936 14.94C217.696 14.31 217.306 13.83 216.766 13.5C216.256 13.17 215.581 13.005 214.741 13.005C214.141 13.005 213.541 13.095 212.941 13.275C212.341 13.425 211.846 13.695 211.456 14.085C212.296 14.385 212.941 14.85 213.391 15.48C213.871 16.08 214.111 16.77 214.111 17.55C214.111 18.57 213.751 19.38 213.031 19.98C212.341 20.58 211.516 20.88 210.556 20.88C209.476 20.88 208.651 20.55 208.081 19.89C207.541 19.2 207.271 18.375 207.271 17.415C207.271 16.545 207.481 15.825 207.901 15.255C208.351 14.685 208.966 14.145 209.746 13.635C210.586 13.155 211.591 12.78 212.761 12.51C213.961 12.24 215.251 12.105 216.631 12.105C218.011 12.105 219.256 12.255 220.366 12.555C221.476 12.825 222.406 13.335 223.156 14.085C223.846 14.775 224.296 15.63 224.506 16.65C224.716 17.64 224.821 18.9 224.821 20.43V32.67C224.821 33.42 224.896 33.945 225.046 34.245C225.196 34.515 225.451 34.65 225.811 34.65C226.081 34.65 226.336 34.575 226.576 34.425C226.846 34.275 227.131 34.095 227.431 33.885L227.881 34.65C227.251 35.19 226.516 35.61 225.676 35.91C224.866 36.18 223.951 36.315 222.931 36.315C221.821 36.315 220.936 36.165 220.276 35.865C219.616 35.535 219.136 35.1 218.836 34.56C218.566 34.02 218.431 33.39 218.431 32.67C217.711 33.81 216.841 34.71 215.821 35.37C214.801 36 213.556 36.315 212.086 36.315ZM215.281 33.435C215.881 33.435 216.421 33.3 216.901 33.03C217.411 32.73 217.891 32.25 218.341 31.59V22.365C218.071 22.815 217.696 23.22 217.216 23.58C216.736 23.94 216.226 24.315 215.686 24.705C215.146 25.065 214.621 25.47 214.111 25.92C213.631 26.37 213.241 26.925 212.941 27.585C212.641 28.245 212.491 29.04 212.491 29.97C212.491 31.14 212.746 32.01 213.256 32.58C213.766 33.15 214.441 33.435 215.281 33.435Z" fill="#3A3A3A"/>
<path d="M238.302 5.355V12.735H243.612V13.635H238.302V31.815C238.302 32.715 238.467 33.36 238.797 33.75C239.127 34.11 239.622 34.29 240.282 34.29C240.822 34.29 241.362 34.095 241.902 33.705C242.442 33.285 242.922 32.58 243.342 31.59L244.107 31.995C243.627 33.345 242.892 34.455 241.902 35.325C240.942 36.195 239.622 36.63 237.942 36.63C236.952 36.63 236.082 36.495 235.332 36.225C234.582 35.985 233.952 35.61 233.442 35.1C232.782 34.44 232.347 33.63 232.137 32.67C231.927 31.68 231.822 30.405 231.822 28.845V13.635H228.042V12.735H231.822V6.795C233.082 6.795 234.237 6.69 235.287 6.48C236.367 6.24 237.372 5.865 238.302 5.355Z" fill="#3A3A3A"/>
</svg>
