<svg width="30" height="30" viewBox="0 0 30 30" fill="none" xmlns="http://www.w3.org/2000/svg">
<path d="M6.13636 14.2573C5.86244 14.507 5.54067 14.7012 5.1896 14.8287C4.83852 14.9561 4.46511 15.0144 4.09091 15V13.6667C5.1 13.6667 5.38364 13.1107 5.45455 12.9053V9.092C5.38909 8.90133 5.11227 8.33333 4.09091 8.33333V7C4.46511 6.98563 4.83852 7.04386 5.1896 7.17132C5.54067 7.29879 5.86244 7.49297 6.13636 7.74267C6.41028 7.49297 6.73206 7.29879 7.08313 7.17132C7.4342 7.04386 7.80761 6.98563 8.18182 7V8.33333C7.17273 8.33333 6.88909 8.88933 6.81818 9.09467V12.908C6.88364 13.0987 7.16045 13.6667 8.18182 13.6667V15C7.80761 15.0144 7.4342 14.9561 7.08313 14.8287C6.73206 14.7012 6.41028 14.507 6.13636 14.2573ZM30 5V25C29.9993 25.5302 29.7835 26.0385 29.4001 26.4134C29.0167 26.7884 28.4968 26.9993 27.9545 27H2.04545C1.50319 26.9993 0.983338 26.7884 0.599897 26.4134C0.216456 26.0385 0.00072158 25.5302 0 25V5C0.00072158 4.46978 0.216456 3.96149 0.599897 3.58657C0.983338 3.21165 1.50319 3.00071 2.04545 3H27.9545C28.4968 3.00071 29.0167 3.21165 29.4001 3.58657C29.7835 3.96149 29.9993 4.46978 30 5ZM28.6364 5C28.6364 4.82319 28.5645 4.65362 28.4367 4.5286C28.3088 4.40357 28.1354 4.33333 27.9545 4.33333H2.04545C1.86463 4.33333 1.6912 4.40357 1.56334 4.5286C1.43547 4.65362 1.36364 4.82319 1.36364 5V25C1.36364 25.1768 1.43547 25.3464 1.56334 25.4714C1.6912 25.5964 1.86463 25.6667 2.04545 25.6667H27.9545C28.1354 25.6667 28.3088 25.5964 28.4367 25.4714C28.5645 25.3464 28.6364 25.1768 28.6364 25V5ZM16.3636 15H17.7273V13.6667H16.3636V15ZM10.9091 15H12.2727V13.6667H10.9091V15ZM19.0909 15H20.4545V13.6667H19.0909V15ZM13.6364 15H15V13.6667H13.6364V15ZM24.5455 15H25.9091V13.6667H24.5455V15ZM21.8182 15H23.1818V13.6667H21.8182V15ZM8.18182 23H9.54545V21.6667H8.18182V23ZM10.9091 23H12.2727V21.6667H10.9091V23ZM13.6364 23H15V21.6667H13.6364V23ZM5.45455 23H6.81818V21.6667H5.45455V23ZM16.3636 23H17.7273V21.6667H16.3636V23ZM24.5455 23H25.9091V21.6667H24.5455V23ZM21.8182 23H23.1818V21.6667H21.8182V23ZM19.0909 23H20.4545V21.6667H19.0909V23Z" fill="#3A3A3A"/>
</svg>
