<svg width="30" height="30" viewBox="0 0 30 30" fill="none" xmlns="http://www.w3.org/2000/svg">
<path d="M15 30C23.2843 30 30 23.2843 30 15C30 6.71573 23.2843 0 15 0C6.71573 0 0 6.71573 0 15C0 23.2843 6.71573 30 15 30Z" fill="#3A3A3A"/>
<path d="M17.2117 8.38508H15.6936C13.0912 8.38508 11.79 9.68627 11.79 11.6381C11.79 13.8068 12.6575 14.8911 14.6092 16.1924L16.1274 17.2767L11.79 23.9996H8.32007L12.4406 17.9273C10.055 16.1924 8.7538 14.6742 8.7538 11.855C8.7538 8.38508 11.1393 5.99951 15.6936 5.99951H20.2479V23.9996H17.2117V8.38508Z" fill="white"/>
</svg>
