<svg width="30" height="30" viewBox="0 0 30 30" fill="none" xmlns="http://www.w3.org/2000/svg">
<g clip-path="url(#clip0_34_105)">
<path d="M3.40562 15.019C3.42607 15.019 3.44379 15.0136 3.46288 15.0136L4.74443 20.7755C4.23219 21.0027 3.78393 21.3527 3.43942 21.7947C3.09492 22.2367 2.86483 22.7568 2.76957 23.3091C2.6743 23.8613 2.71682 24.4285 2.89333 24.9603C3.06985 25.4922 3.37491 25.9722 3.78145 26.3579C4.18798 26.7436 4.68342 27.0229 5.2238 27.1711C5.76418 27.3194 6.3328 27.3319 6.87919 27.2077C7.42558 27.0834 7.93286 26.8262 8.356 26.4588C8.77914 26.0915 9.10507 25.6253 9.30487 25.1018L19.0965 26.7338C19.1197 27.3376 19.3034 27.9242 19.6289 28.4332C19.9543 28.9422 20.4097 29.3552 20.9479 29.6296C21.4862 29.904 22.0879 30.0298 22.6909 29.9941C23.294 29.9583 23.8767 29.7624 24.3788 29.4264C24.8809 29.0904 25.2843 28.6265 25.5473 28.0826C25.8104 27.5387 25.9237 26.9345 25.8754 26.3323C25.8271 25.73 25.6191 25.1515 25.2727 24.6565C24.9264 24.1615 24.4543 23.7678 23.9051 23.5161L26.4982 12.2839C26.5268 12.2839 26.5527 12.2921 26.5827 12.2921C27.1676 12.2936 27.7431 12.1446 28.2538 11.8593C28.7644 11.574 29.1931 11.1621 29.4985 10.6632C29.8039 10.1643 29.9758 9.59518 29.9976 9.01061C30.0194 8.42604 29.8905 7.84569 29.6231 7.3254C29.3557 6.80511 28.959 6.36238 28.471 6.03983C27.983 5.71727 27.4202 5.52574 26.8368 5.48366C26.2534 5.44157 25.669 5.55035 25.1397 5.79953C24.6105 6.04872 24.1543 6.42991 23.8151 6.90644L17.6391 4.16317C17.7595 3.63266 17.7512 3.08104 17.6149 2.5544C17.4785 2.02776 17.2182 1.5414 16.8555 1.13596C16.4928 0.730527 16.0383 0.41779 15.5301 0.223887C15.0219 0.0299834 14.4746 -0.0394529 13.9341 0.0213804C13.3935 0.0822138 12.8754 0.27155 12.423 0.573566C11.9705 0.875582 11.597 1.2815 11.3335 1.75741C11.0699 2.23332 10.9242 2.76539 10.9083 3.30916C10.8924 3.85293 11.0069 4.3926 11.2422 4.88307L5.65652 9.07025C5.24411 8.70507 4.7492 8.44551 4.21432 8.31389C3.67944 8.18227 3.1206 8.18252 2.58585 8.31463C2.05109 8.44673 1.55641 8.70674 1.14433 9.07229C0.732256 9.43784 0.415111 9.898 0.220162 10.4132C0.0252131 10.9284 -0.0417082 11.4833 0.0251511 12.0301C0.0920103 12.5769 0.29065 13.0993 0.603994 13.5523C0.917338 14.0054 1.33601 14.3756 1.82402 14.6311C2.31204 14.8865 2.85479 15.0197 3.40562 15.019ZM4.79352 14.7163C5.55695 14.3731 6.1681 13.7619 6.51135 12.9984L12.2729 14.28C12.2729 14.2991 12.2674 14.3168 12.2674 14.3373C12.2672 15.0054 12.4645 15.6586 12.8346 16.2148L8.00831 21.0414C7.45274 20.671 6.80004 20.4732 6.13233 20.4728C6.11325 20.4728 6.09416 20.4783 6.07507 20.4783L4.79352 14.7163ZM14.5879 11.1236C14.1442 11.2731 13.7361 11.5123 13.389 11.8264C13.0419 12.1405 12.7631 12.5228 12.5701 12.9493L6.80856 11.6676C6.80856 11.6485 6.81401 11.6308 6.81401 11.6104C6.81154 11.1073 6.69647 10.6111 6.47726 10.1583L12.0616 5.96975C12.6139 6.45981 13.3117 6.75531 14.048 6.811L14.5879 11.1236ZM17.7209 13.6556V15.019C17.7209 15.3806 17.5772 15.7274 17.3216 15.9831C17.0659 16.2388 16.7191 16.3825 16.3575 16.3825H14.9942C14.6326 16.3825 14.2858 16.2388 14.0301 15.9831C13.7744 15.7274 13.6308 15.3806 13.6308 15.019V13.6556C13.6308 13.2939 13.7744 12.9471 14.0301 12.6914C14.2858 12.4357 14.6326 12.2921 14.9942 12.2921H16.3575C16.7191 12.2921 17.0659 12.4357 17.3216 12.6914C17.5772 12.9471 17.7209 13.2939 17.7209 13.6556ZM19.3201 25.3881L9.52709 23.756C9.50721 23.132 9.31517 22.5257 8.97221 22.004L13.7985 17.1774C14.2176 17.4625 14.697 17.6466 15.1992 17.7152C15.7014 17.7838 16.2127 17.7351 16.6929 17.5728L20.2813 24.0355C19.8536 24.3999 19.5229 24.8646 19.3187 25.3881H19.3201ZM6.81401 25.9267H5.45065C5.08907 25.9267 4.74229 25.783 4.48662 25.5273C4.23094 25.2716 4.0873 24.9248 4.0873 24.5632V23.1997C4.0873 22.8381 4.23094 22.4913 4.48662 22.2356C4.74229 21.9799 5.08907 21.8363 5.45065 21.8363H6.81401C7.1756 21.8363 7.52237 21.9799 7.77805 22.2356C8.03373 22.4913 8.17737 22.8381 8.17737 23.1997V24.5632C8.17737 24.9248 8.03373 25.2716 7.77805 25.5273C7.52237 25.783 7.1756 25.9267 6.81401 25.9267ZM24.5377 25.9267V27.2901C24.5377 27.6517 24.394 27.9985 24.1383 28.2542C23.8827 28.5099 23.5359 28.6536 23.1743 28.6536H21.8109C21.4494 28.6536 21.1026 28.5099 20.8469 28.2542C20.5912 27.9985 20.4476 27.6517 20.4476 27.2901V25.9267C20.4476 25.5651 20.5912 25.2182 20.8469 24.9626C21.1026 24.7069 21.4494 24.5632 21.8109 24.5632H23.1743C23.5359 24.5632 23.8827 24.7069 24.1383 24.9626C24.394 25.2182 24.5377 25.5651 24.5377 25.9267ZM22.5772 23.2079C22.5499 23.2079 22.5226 23.1997 22.4926 23.1997C22.1463 23.2047 21.8027 23.2631 21.4742 23.3729L17.8858 16.9101C18.3812 16.5022 18.7464 15.9583 18.9364 15.3453C19.1263 14.7323 19.1327 14.0771 18.9547 13.4606L23.9146 10.9791C24.2477 11.4062 24.6776 11.7478 25.1689 11.9758L22.5772 23.2079ZM25.901 6.83827H27.2644C27.626 6.83827 27.9727 6.98192 28.2284 7.23762C28.4841 7.49331 28.6277 7.84011 28.6277 8.20173V9.56518C28.6277 9.92679 28.4841 10.2736 28.2284 10.5293C27.9727 10.785 27.626 10.9286 27.2644 10.9286H25.901C25.5394 10.9286 25.1927 10.785 24.937 10.5293C24.6813 10.2736 24.5377 9.92679 24.5377 9.56518V8.20173C24.5377 7.84011 24.6813 7.49331 24.937 7.23762C25.1927 6.98192 25.5394 6.83827 25.901 6.83827ZM23.2575 8.15128C23.1328 8.68248 23.1487 9.23702 23.3038 9.76016L18.3439 12.2416C18.0543 11.8724 17.691 11.5675 17.2772 11.3461C16.8635 11.1248 16.4082 10.9919 15.9403 10.9559L15.4004 6.64329C16.0755 6.4162 16.6624 5.98324 17.0787 5.40528L23.2575 8.15128ZM12.2674 4.11136V2.7479C12.2674 2.38629 12.4111 2.03949 12.6668 1.78379C12.9224 1.52809 13.2692 1.38444 13.6308 1.38444H14.9942C15.3557 1.38444 15.7025 1.52809 15.9582 1.78379C16.2139 2.03949 16.3575 2.38629 16.3575 2.7479V4.11136C16.3575 4.47297 16.2139 4.81977 15.9582 5.07546C15.7025 5.33116 15.3557 5.47481 14.9942 5.47481H13.6308C13.2692 5.47481 12.9224 5.33116 12.6668 5.07546C12.4111 4.81977 12.2674 4.47297 12.2674 4.11136ZM1.36058 10.9286C1.36058 10.567 1.50422 10.2202 1.7599 9.96453C2.01558 9.70883 2.36235 9.56518 2.72394 9.56518H4.0873C4.44888 9.56518 4.79566 9.70883 5.05134 9.96453C5.30701 10.2202 5.45065 10.567 5.45065 10.9286V12.2921C5.45065 12.6537 5.30701 13.0005 5.05134 13.2562C4.79566 13.5119 4.44888 13.6556 4.0873 13.6556H2.72394C2.36235 13.6556 2.01558 13.5119 1.7599 13.2562C1.50422 13.0005 1.36058 12.6537 1.36058 12.2921V10.9286Z" fill="#3A3A3A"/>
</g>
<defs>
<clipPath id="clip0_34_105">
<rect width="30" height="30" fill="white"/>
</clipPath>
</defs>
</svg>
