<svg width="40" height="40" viewBox="0 0 40 40" fill="none" xmlns="http://www.w3.org/2000/svg">
<path fill-rule="evenodd" clip-rule="evenodd" d="M17.9624 0.0825335C9.39746 0.986716 2.33846 7.26169 0.462044 15.639C-0.0784109 18.0518 -0.149272 20.9732 0.273392 23.4128C1.60271 31.0855 7.3661 37.3675 14.8801 39.3345C17.6526 40.0601 20.683 40.1973 23.4364 39.7219C31.2088 38.3799 37.5332 32.5145 39.438 24.8814C39.9 23.0302 40 22.161 40 19.9984C40 17.8358 39.9 16.9665 39.438 15.1153C37.532 7.47811 31.177 1.58956 23.4204 0.273714C21.8226 0.00268606 19.4921 -0.0789584 17.9624 0.0825335ZM28.9182 12.2387C29.2886 12.5133 29.3568 12.8696 29.2516 13.9793C29.0292 16.3272 27.3538 26.7232 26.9292 28.3917C26.7716 29.0111 26.4928 29.5429 26.1948 29.7935C25.9828 29.9717 25.8792 29.9989 25.4132 29.9989C24.9444 29.9989 24.803 29.9613 24.3046 29.7035C23.9904 29.5409 23.5398 29.2665 23.3032 29.0935C23.0666 28.9205 21.7292 28.0121 20.331 27.0746C17.6799 25.297 17.1827 24.9044 17.0415 24.4766C16.8607 23.9292 17.149 23.5572 19.3325 21.5212C21.4196 19.5752 23.7344 17.3165 23.8992 17.0651C24.0652 16.812 23.9264 16.5607 23.6204 16.5607C23.455 16.5607 22.1866 17.3627 18.8325 19.5882C15.98 21.4808 14.1082 22.6732 13.8393 22.7692C13.219 22.9908 12.4489 22.9586 11.3211 22.664C10.2584 22.3866 8.50888 21.829 8.16888 21.6596C7.52064 21.3364 7.3984 20.9066 7.83648 20.4908C8.1756 20.1688 8.17826 20.1676 12.6038 18.2503C21.5242 14.3855 25.932 12.5757 27.4788 12.1431C28.0082 11.9951 28.6468 12.0375 28.9182 12.2387Z" fill="#37AFE2"/>
</svg>
