<svg width="40" height="40" viewBox="0 0 40 40" fill="none" xmlns="http://www.w3.org/2000/svg">
<path fill-rule="evenodd" clip-rule="evenodd" d="M18.5508 0.0249018C15.5318 0.319136 13.2552 0.971565 10.7861 2.24992C8.97906 3.18556 7.5665 4.20978 6.05166 5.683C0.74894 10.8397 -1.24715 18.3395 0.7749 25.5092C1.27813 27.2938 2.18372 29.2804 3.21386 30.8602L3.797 31.7544L2.55284 35.4272C1.86861 37.4472 1.31941 39.1108 1.33255 39.1238C1.3456 39.137 3.05694 38.6036 5.13552 37.9386C7.21418 37.2736 8.94264 36.7296 8.97664 36.7296C9.01066 36.7296 9.33154 36.9118 9.68972 37.1344C10.5377 37.6616 12.1509 38.431 13.234 38.8252C15.5456 39.6662 18.3231 40.0906 20.8184 39.9838C26.0184 39.7614 30.7254 37.6374 34.3912 33.859C41.8696 26.1508 41.8696 13.8426 34.3912 6.1344C31.2426 2.88922 27.4378 0.915112 22.9686 0.207792C22.0336 0.0598534 19.3374 -0.0518042 18.5508 0.0249018ZM13.7822 9.30334C13.9116 9.37049 14.093 9.5609 14.1854 9.72636C14.4185 10.1442 16.3193 14.7226 16.3747 14.9995C16.4455 15.3538 16.0991 15.9561 15.3219 16.83C14.5108 17.7418 14.3365 18.0345 14.4087 18.3633C14.5398 18.96 16.3481 21.3582 17.4622 22.4128C19.1911 24.0494 21.8042 25.6034 22.9686 25.6874C23.5662 25.7306 23.7858 25.561 24.6906 24.3564C25.1002 23.8112 25.5374 23.2586 25.662 23.1284C25.9384 22.84 26.3226 22.756 26.7916 22.8814C27.2362 23.0004 31.4422 25.029 31.7948 25.2948L32.0596 25.494L32.0158 26.3226C31.8994 28.5298 31.026 29.7418 28.8718 30.685C27.2846 31.38 25.6254 31.326 23.2044 30.5002C20.244 29.4904 18.306 28.4786 16.3224 26.9068C15.3754 26.1564 13.1261 23.8758 12.2446 22.7724C9.26782 19.0461 8.16972 16.5277 8.42548 14.0134C8.59562 12.3406 9.18016 11.1057 10.3607 9.9252C10.9318 9.354 11.6792 9.11888 12.8039 9.15641C13.2811 9.17228 13.6309 9.22484 13.7822 9.30334Z" fill="#52CE5F"/>
</svg>
